<?xml version="1.0" encoding="UTF-8" standalone="no"?>
<svg width="237.067mm" height="142.875mm"
 viewBox="0 0 672 405"
 xmlns="http://www.w3.org/2000/svg" xmlns:xlink="http://www.w3.org/1999/xlink"  version="1.2" baseProfile="tiny">
<title>Qt SVG Document</title>
<desc>MATLAB, The MathWorks, Inc. Version 25.1.0.2943329 R2025a</desc>
<defs>
</defs>
<g fill="none" stroke="black" stroke-width="1" fill-rule="evenodd" stroke-linecap="square" stroke-linejoin="bevel" >

<g fill="#ffffff" fill-opacity="1" stroke="none" transform="matrix(0.375,0,0,0.375,0,0)"
font-family="SimSun" font-size="9" font-weight="400" font-style="normal" 
>
<path vector-effect="none" fill-rule="evenodd" d="M0,0 L1791,0 L1791,1079 L0,1079 L0,0"/>
</g>

<g fill="#ffffff" fill-opacity="1" stroke="none" transform="matrix(3.75e-05,0,0,3.75e-05,0,0)"
font-family="SimSun" font-size="9" font-weight="400" font-style="normal" 
>
<path vector-effect="none" fill-rule="evenodd" d="M2.33e+06,810000 L2.33e+06,9.59e+06 L1.62e+07,9.59e+06 L1.62e+07,810000 L2.33e+06,810000"/>
</g>

<g fill="#212121" fill-opacity="0.14902" stroke="#212121" stroke-opacity="0.14902" stroke-width="1.33333" stroke-linecap="butt" stroke-linejoin="round" transform="matrix(0.375,0,0,0.375,0,0)"
font-family="SimSun" font-size="9" font-weight="400" font-style="normal" 
>
<polyline fill="none" vector-effect="none" points="233,81 233,959 " />
<polyline fill="none" vector-effect="none" points="371.7,81 371.7,959 " />
<polyline fill="none" vector-effect="none" points="510.4,81 510.4,959 " />
<polyline fill="none" vector-effect="none" points="649.1,81 649.1,959 " />
<polyline fill="none" vector-effect="none" points="787.8,81 787.8,959 " />
<polyline fill="none" vector-effect="none" points="926.5,81 926.5,959 " />
<polyline fill="none" vector-effect="none" points="1065.2,81 1065.2,959 " />
<polyline fill="none" vector-effect="none" points="1203.9,81 1203.9,959 " />
<polyline fill="none" vector-effect="none" points="1342.6,81 1342.6,959 " />
<polyline fill="none" vector-effect="none" points="1481.3,81 1481.3,959 " />
<polyline fill="none" vector-effect="none" points="1620,81 1620,959 " />
<polyline fill="none" vector-effect="none" points="233,959 1620,959 " />
<polyline fill="none" vector-effect="none" points="233,861.444 1620,861.444 " />
<polyline fill="none" vector-effect="none" points="233,763.889 1620,763.889 " />
<polyline fill="none" vector-effect="none" points="233,666.333 1620,666.333 " />
<polyline fill="none" vector-effect="none" points="233,568.778 1620,568.778 " />
<polyline fill="none" vector-effect="none" points="233,471.222 1620,471.222 " />
<polyline fill="none" vector-effect="none" points="233,373.667 1620,373.667 " />
<polyline fill="none" vector-effect="none" points="233,276.111 1620,276.111 " />
<polyline fill="none" vector-effect="none" points="233,178.556 1620,178.556 " />
<polyline fill="none" vector-effect="none" points="233,81 1620,81 " />
</g>

<g fill="#212121" fill-opacity="1" stroke="#212121" stroke-opacity="1" stroke-width="1" stroke-linecap="square" stroke-linejoin="bevel" transform="matrix(0.375,0,0,0.375,321.563,386)"
font-family="Helvetica" font-size="29" font-weight="400" font-style="normal" 
>
<text fill="#212121" fill-opacity="1" stroke="none" xml:space="preserve" x="0" y="0" font-family="Helvetica" font-size="29" font-weight="400" font-style="normal" 
 >Frequency</text>
</g>

<g fill="#212121" fill-opacity="1" stroke="#212121" stroke-opacity="1" stroke-width="1.33333" stroke-linecap="square" stroke-linejoin="round" transform="matrix(0.375,0,0,0.375,0,0)"
font-family="Helvetica" font-size="29" font-weight="400" font-style="normal" 
>
<polyline fill="none" vector-effect="none" points="233,959 1620,959 " />
<polyline fill="none" vector-effect="none" points="233,81 1620,81 " />
<polyline fill="none" vector-effect="none" points="233,959 233,945.13 " />
<polyline fill="none" vector-effect="none" points="233,94.87 233,81 " />
<polyline fill="none" vector-effect="none" points="371.7,959 371.7,945.13 " />
<polyline fill="none" vector-effect="none" points="371.7,94.87 371.7,81 " />
<polyline fill="none" vector-effect="none" points="510.4,959 510.4,945.13 " />
<polyline fill="none" vector-effect="none" points="510.4,94.87 510.4,81 " />
<polyline fill="none" vector-effect="none" points="649.1,959 649.1,945.13 " />
<polyline fill="none" vector-effect="none" points="649.1,94.87 649.1,81 " />
<polyline fill="none" vector-effect="none" points="787.8,959 787.8,945.13 " />
<polyline fill="none" vector-effect="none" points="787.8,94.87 787.8,81 " />
<polyline fill="none" vector-effect="none" points="926.5,959 926.5,945.13 " />
<polyline fill="none" vector-effect="none" points="926.5,94.87 926.5,81 " />
<polyline fill="none" vector-effect="none" points="1065.2,959 1065.2,945.13 " />
<polyline fill="none" vector-effect="none" points="1065.2,94.87 1065.2,81 " />
<polyline fill="none" vector-effect="none" points="1203.9,959 1203.9,945.13 " />
<polyline fill="none" vector-effect="none" points="1203.9,94.87 1203.9,81 " />
<polyline fill="none" vector-effect="none" points="1342.6,959 1342.6,945.13 " />
<polyline fill="none" vector-effect="none" points="1342.6,94.87 1342.6,81 " />
<polyline fill="none" vector-effect="none" points="1481.3,959 1481.3,945.13 " />
<polyline fill="none" vector-effect="none" points="1481.3,94.87 1481.3,81 " />
<polyline fill="none" vector-effect="none" points="1620,959 1620,945.13 " />
<polyline fill="none" vector-effect="none" points="1620,94.87 1620,81 " />
</g>

<g fill="#212121" fill-opacity="1" stroke="#212121" stroke-opacity="1" stroke-width="1" stroke-linecap="square" stroke-linejoin="bevel" transform="matrix(0.375,0,0,0.375,79.125,372.625)"
font-family="Helvetica" font-size="26" font-weight="400" font-style="normal" 
>
<text fill="#212121" fill-opacity="1" stroke="none" xml:space="preserve" x="0" y="0" font-family="Helvetica" font-size="26" font-weight="400" font-style="normal" 
 >-0.5</text>
</g>

<g fill="#212121" fill-opacity="1" stroke="#212121" stroke-opacity="1" stroke-width="1" stroke-linecap="square" stroke-linejoin="bevel" transform="matrix(0.375,0,0,0.375,131.137,372.625)"
font-family="Helvetica" font-size="26" font-weight="400" font-style="normal" 
>
<text fill="#212121" fill-opacity="1" stroke="none" xml:space="preserve" x="0" y="0" font-family="Helvetica" font-size="26" font-weight="400" font-style="normal" 
 >-0.4</text>
</g>

<g fill="#212121" fill-opacity="1" stroke="#212121" stroke-opacity="1" stroke-width="1" stroke-linecap="square" stroke-linejoin="bevel" transform="matrix(0.375,0,0,0.375,183.15,372.625)"
font-family="Helvetica" font-size="26" font-weight="400" font-style="normal" 
>
<text fill="#212121" fill-opacity="1" stroke="none" xml:space="preserve" x="0" y="0" font-family="Helvetica" font-size="26" font-weight="400" font-style="normal" 
 >-0.3</text>
</g>

<g fill="#212121" fill-opacity="1" stroke="#212121" stroke-opacity="1" stroke-width="1" stroke-linecap="square" stroke-linejoin="bevel" transform="matrix(0.375,0,0,0.375,235.162,372.625)"
font-family="Helvetica" font-size="26" font-weight="400" font-style="normal" 
>
<text fill="#212121" fill-opacity="1" stroke="none" xml:space="preserve" x="0" y="0" font-family="Helvetica" font-size="26" font-weight="400" font-style="normal" 
 >-0.2</text>
</g>

<g fill="#212121" fill-opacity="1" stroke="#212121" stroke-opacity="1" stroke-width="1" stroke-linecap="square" stroke-linejoin="bevel" transform="matrix(0.375,0,0,0.375,287.175,372.625)"
font-family="Helvetica" font-size="26" font-weight="400" font-style="normal" 
>
<text fill="#212121" fill-opacity="1" stroke="none" xml:space="preserve" x="0" y="0" font-family="Helvetica" font-size="26" font-weight="400" font-style="normal" 
 >-0.1</text>
</g>

<g fill="#212121" fill-opacity="1" stroke="#212121" stroke-opacity="1" stroke-width="1" stroke-linecap="square" stroke-linejoin="bevel" transform="matrix(0.375,0,0,0.375,344.813,372.625)"
font-family="Helvetica" font-size="26" font-weight="400" font-style="normal" 
>
<text fill="#212121" fill-opacity="1" stroke="none" xml:space="preserve" x="0" y="0" font-family="Helvetica" font-size="26" font-weight="400" font-style="normal" 
 >0</text>
</g>

<g fill="#212121" fill-opacity="1" stroke="#212121" stroke-opacity="1" stroke-width="1" stroke-linecap="square" stroke-linejoin="bevel" transform="matrix(0.375,0,0,0.375,392.887,372.625)"
font-family="Helvetica" font-size="26" font-weight="400" font-style="normal" 
>
<text fill="#212121" fill-opacity="1" stroke="none" xml:space="preserve" x="0" y="0" font-family="Helvetica" font-size="26" font-weight="400" font-style="normal" 
 >0.1</text>
</g>

<g fill="#212121" fill-opacity="1" stroke="#212121" stroke-opacity="1" stroke-width="1" stroke-linecap="square" stroke-linejoin="bevel" transform="matrix(0.375,0,0,0.375,444.9,372.625)"
font-family="Helvetica" font-size="26" font-weight="400" font-style="normal" 
>
<text fill="#212121" fill-opacity="1" stroke="none" xml:space="preserve" x="0" y="0" font-family="Helvetica" font-size="26" font-weight="400" font-style="normal" 
 >0.2</text>
</g>

<g fill="#212121" fill-opacity="1" stroke="#212121" stroke-opacity="1" stroke-width="1" stroke-linecap="square" stroke-linejoin="bevel" transform="matrix(0.375,0,0,0.375,496.912,372.625)"
font-family="Helvetica" font-size="26" font-weight="400" font-style="normal" 
>
<text fill="#212121" fill-opacity="1" stroke="none" xml:space="preserve" x="0" y="0" font-family="Helvetica" font-size="26" font-weight="400" font-style="normal" 
 >0.3</text>
</g>

<g fill="#212121" fill-opacity="1" stroke="#212121" stroke-opacity="1" stroke-width="1" stroke-linecap="square" stroke-linejoin="bevel" transform="matrix(0.375,0,0,0.375,548.925,372.625)"
font-family="Helvetica" font-size="26" font-weight="400" font-style="normal" 
>
<text fill="#212121" fill-opacity="1" stroke="none" xml:space="preserve" x="0" y="0" font-family="Helvetica" font-size="26" font-weight="400" font-style="normal" 
 >0.4</text>
</g>

<g fill="#212121" fill-opacity="1" stroke="#212121" stroke-opacity="1" stroke-width="1" stroke-linecap="square" stroke-linejoin="bevel" transform="matrix(0.375,0,0,0.375,600.938,372.625)"
font-family="Helvetica" font-size="26" font-weight="400" font-style="normal" 
>
<text fill="#212121" fill-opacity="1" stroke="none" xml:space="preserve" x="0" y="0" font-family="Helvetica" font-size="26" font-weight="400" font-style="normal" 
 >0.5</text>
</g>

<g fill="#212121" fill-opacity="1" stroke="#212121" stroke-opacity="1" stroke-width="1" stroke-linecap="square" stroke-linejoin="bevel" transform="matrix(0,-0.375,0.375,0,55.125,234)"
font-family="Helvetica" font-size="29" font-weight="400" font-style="normal" 
>
<text fill="#212121" fill-opacity="1" stroke="none" xml:space="preserve" x="0" y="0" font-family="Helvetica" font-size="29" font-weight="400" font-style="normal" 
 >Power = |X|</text>
</g>

<g fill="#212121" fill-opacity="1" stroke="#212121" stroke-opacity="1" stroke-width="1" stroke-linecap="square" stroke-linejoin="bevel" transform="matrix(0,-0.375,0.375,0,49.875,177.75)"
font-family="Helvetica" font-size="23" font-weight="400" font-style="normal" 
>
<text fill="#212121" fill-opacity="1" stroke="none" xml:space="preserve" x="0" y="0" font-family="Helvetica" font-size="23" font-weight="400" font-style="normal" 
 >2</text>
</g>

<g fill="#212121" fill-opacity="1" stroke="#212121" stroke-opacity="1" stroke-width="1" stroke-linecap="square" stroke-linejoin="bevel" transform="matrix(0,-0.375,0.375,0,55.125,172.875)"
font-family="Helvetica" font-size="29" font-weight="400" font-style="normal" 
>
<text fill="#212121" fill-opacity="1" stroke="none" xml:space="preserve" x="0" y="0" font-family="Helvetica" font-size="29" font-weight="400" font-style="normal" 
 > / N</text>
</g>

<g fill="#212121" fill-opacity="1" stroke="#212121" stroke-opacity="1" stroke-width="1.33333" stroke-linecap="square" stroke-linejoin="round" transform="matrix(0.375,0,0,0.375,0,0)"
font-family="Helvetica" font-size="29" font-weight="400" font-style="normal" 
>
<polyline fill="none" vector-effect="none" points="233,959 233,81 " />
<polyline fill="none" vector-effect="none" points="1620,959 1620,81 " />
<polyline fill="none" vector-effect="none" points="233,959 246.87,959 " />
<polyline fill="none" vector-effect="none" points="1606.13,959 1620,959 " />
<polyline fill="none" vector-effect="none" points="233,861.444 246.87,861.444 " />
<polyline fill="none" vector-effect="none" points="1606.13,861.444 1620,861.444 " />
<polyline fill="none" vector-effect="none" points="233,763.889 246.87,763.889 " />
<polyline fill="none" vector-effect="none" points="1606.13,763.889 1620,763.889 " />
<polyline fill="none" vector-effect="none" points="233,666.333 246.87,666.333 " />
<polyline fill="none" vector-effect="none" points="1606.13,666.333 1620,666.333 " />
<polyline fill="none" vector-effect="none" points="233,568.778 246.87,568.778 " />
<polyline fill="none" vector-effect="none" points="1606.13,568.778 1620,568.778 " />
<polyline fill="none" vector-effect="none" points="233,471.222 246.87,471.222 " />
<polyline fill="none" vector-effect="none" points="1606.13,471.222 1620,471.222 " />
<polyline fill="none" vector-effect="none" points="233,373.667 246.87,373.667 " />
<polyline fill="none" vector-effect="none" points="1606.13,373.667 1620,373.667 " />
<polyline fill="none" vector-effect="none" points="233,276.111 246.87,276.111 " />
<polyline fill="none" vector-effect="none" points="1606.13,276.111 1620,276.111 " />
<polyline fill="none" vector-effect="none" points="233,178.556 246.87,178.556 " />
<polyline fill="none" vector-effect="none" points="1606.13,178.556 1620,178.556 " />
<polyline fill="none" vector-effect="none" points="233,81 246.87,81 " />
<polyline fill="none" vector-effect="none" points="1606.13,81 1620,81 " />
</g>

<g fill="#212121" fill-opacity="1" stroke="#212121" stroke-opacity="1" stroke-width="1" stroke-linecap="square" stroke-linejoin="bevel" transform="matrix(0.375,0,0,0.375,78.125,363)"
font-family="Helvetica" font-size="26" font-weight="400" font-style="normal" 
>
<text fill="#212121" fill-opacity="1" stroke="none" xml:space="preserve" x="0" y="0" font-family="Helvetica" font-size="26" font-weight="400" font-style="normal" 
 >0</text>
</g>

<g fill="#212121" fill-opacity="1" stroke="#212121" stroke-opacity="1" stroke-width="1" stroke-linecap="square" stroke-linejoin="bevel" transform="matrix(0.375,0,0,0.375,67.625,326.417)"
font-family="Helvetica" font-size="26" font-weight="400" font-style="normal" 
>
<text fill="#212121" fill-opacity="1" stroke="none" xml:space="preserve" x="0" y="0" font-family="Helvetica" font-size="26" font-weight="400" font-style="normal" 
 >200</text>
</g>

<g fill="#212121" fill-opacity="1" stroke="#212121" stroke-opacity="1" stroke-width="1" stroke-linecap="square" stroke-linejoin="bevel" transform="matrix(0.375,0,0,0.375,67.625,289.833)"
font-family="Helvetica" font-size="26" font-weight="400" font-style="normal" 
>
<text fill="#212121" fill-opacity="1" stroke="none" xml:space="preserve" x="0" y="0" font-family="Helvetica" font-size="26" font-weight="400" font-style="normal" 
 >400</text>
</g>

<g fill="#212121" fill-opacity="1" stroke="#212121" stroke-opacity="1" stroke-width="1" stroke-linecap="square" stroke-linejoin="bevel" transform="matrix(0.375,0,0,0.375,67.625,253.25)"
font-family="Helvetica" font-size="26" font-weight="400" font-style="normal" 
>
<text fill="#212121" fill-opacity="1" stroke="none" xml:space="preserve" x="0" y="0" font-family="Helvetica" font-size="26" font-weight="400" font-style="normal" 
 >600</text>
</g>

<g fill="#212121" fill-opacity="1" stroke="#212121" stroke-opacity="1" stroke-width="1" stroke-linecap="square" stroke-linejoin="bevel" transform="matrix(0.375,0,0,0.375,67.625,216.667)"
font-family="Helvetica" font-size="26" font-weight="400" font-style="normal" 
>
<text fill="#212121" fill-opacity="1" stroke="none" xml:space="preserve" x="0" y="0" font-family="Helvetica" font-size="26" font-weight="400" font-style="normal" 
 >800</text>
</g>

<g fill="#212121" fill-opacity="1" stroke="#212121" stroke-opacity="1" stroke-width="1" stroke-linecap="square" stroke-linejoin="bevel" transform="matrix(0.375,0,0,0.375,62.375,180.083)"
font-family="Helvetica" font-size="26" font-weight="400" font-style="normal" 
>
<text fill="#212121" fill-opacity="1" stroke="none" xml:space="preserve" x="0" y="0" font-family="Helvetica" font-size="26" font-weight="400" font-style="normal" 
 >1000</text>
</g>

<g fill="#212121" fill-opacity="1" stroke="#212121" stroke-opacity="1" stroke-width="1" stroke-linecap="square" stroke-linejoin="bevel" transform="matrix(0.375,0,0,0.375,62.375,143.5)"
font-family="Helvetica" font-size="26" font-weight="400" font-style="normal" 
>
<text fill="#212121" fill-opacity="1" stroke="none" xml:space="preserve" x="0" y="0" font-family="Helvetica" font-size="26" font-weight="400" font-style="normal" 
 >1200</text>
</g>

<g fill="#212121" fill-opacity="1" stroke="#212121" stroke-opacity="1" stroke-width="1" stroke-linecap="square" stroke-linejoin="bevel" transform="matrix(0.375,0,0,0.375,62.375,106.917)"
font-family="Helvetica" font-size="26" font-weight="400" font-style="normal" 
>
<text fill="#212121" fill-opacity="1" stroke="none" xml:space="preserve" x="0" y="0" font-family="Helvetica" font-size="26" font-weight="400" font-style="normal" 
 >1400</text>
</g>

<g fill="#212121" fill-opacity="1" stroke="#212121" stroke-opacity="1" stroke-width="1" stroke-linecap="square" stroke-linejoin="bevel" transform="matrix(0.375,0,0,0.375,62.375,70.3333)"
font-family="Helvetica" font-size="26" font-weight="400" font-style="normal" 
>
<text fill="#212121" fill-opacity="1" stroke="none" xml:space="preserve" x="0" y="0" font-family="Helvetica" font-size="26" font-weight="400" font-style="normal" 
 >1600</text>
</g>

<g fill="#212121" fill-opacity="1" stroke="#212121" stroke-opacity="1" stroke-width="1" stroke-linecap="square" stroke-linejoin="bevel" transform="matrix(0.375,0,0,0.375,62.375,33.75)"
font-family="Helvetica" font-size="26" font-weight="400" font-style="normal" 
>
<text fill="#212121" fill-opacity="1" stroke="none" xml:space="preserve" x="0" y="0" font-family="Helvetica" font-size="26" font-weight="400" font-style="normal" 
 >1800</text>
</g>

<g fill="#212121" fill-opacity="1" stroke="#212121" stroke-opacity="1" stroke-width="1" stroke-linecap="square" stroke-linejoin="bevel" transform="matrix(0.375,0,0,0.375,307.313,26.7188)"
font-family="Helvetica" font-size="29" font-weight="400" font-style="normal" 
>
<text fill="#212121" fill-opacity="1" stroke="none" xml:space="preserve" x="0" y="0" font-family="Helvetica" font-size="29" font-weight="400" font-style="normal" 
 >Power Spectrum</text>
</g>

<g fill="none" stroke="#ff0000" stroke-opacity="1" stroke-width="1.33333" stroke-linecap="butt" stroke-linejoin="round" transform="matrix(0.375,0,0,0.375,0,0)"
font-family="Helvetica" font-size="29" font-weight="400" font-style="normal" 
>
<polyline fill="none" vector-effect="none" points="233,928.096 233.677,930.747 234.354,934.747 235.032,934.626 235.709,921.414 236.386,787.892 237.063,164.019 237.741,910.043 238.418,940.714 239.095,948.53 239.772,951.786 240.45,953.511 241.127,954.562 241.804,955.259 242.481,955.748 243.159,956.102 243.836,956.361 244.513,956.548 245.19,956.678 245.868,956.756 246.545,956.783 247.222,956.753 247.899,956.654 248.577,956.453 249.254,956.09 249.931,955.424 250.608,954.08 251.286,950.752 251.963,937.577 252.64,545.353 253.317,918.734 253.995,952.997 254.672,956.979 255.349,958.074 256.026,958.492 256.704,958.684 257.381,958.782 258.058,958.837 258.735,958.869 259.413,958.889 260.09,958.902 260.767,958.912 261.444,958.918 262.122,958.923 262.799,958.927 263.476,958.93 264.153,958.932 264.831,958.935 265.508,958.937 266.185,958.939 266.862,958.94 267.54,958.942 268.217,958.944 268.894,958.945 269.571,958.947 270.249,958.948 270.926,958.949 271.603,958.951 272.28,958.952 272.958,958.953 273.635,958.954 274.312,958.955 274.989,958.957 275.667,958.958 276.344,958.959 277.021,958.96 277.698,958.961 278.375,958.962 279.053,958.962 279.73,958.963 280.407,958.964 281.084,958.965 281.762,958.966 282.439,958.967 283.116,958.967 283.793,958.968 284.471,958.969 285.148,958.969 285.825,958.97 286.502,958.971 287.18,958.971 287.857,958.972 288.534,958.973 289.211,958.973 289.889,958.974 290.566,958.974 291.243,958.975 291.92,958.975 292.598,958.976 293.275,958.976 293.952,958.977 294.629,958.977 295.307,958.978 295.984,958.978 296.661,958.979 297.338,958.979 298.016,958.979 298.693,958.98 299.37,958.98 300.047,958.98 300.725,958.981 301.402,958.981 302.079,958.982 302.756,958.982 303.434,958.982 304.111,958.982 304.788,958.983 305.465,958.983 306.143,958.983 306.82,958.984 307.497,958.984 308.174,958.984 308.852,958.984 309.529,958.985 310.206,958.985 310.883,958.985 311.561,958.985 312.238,958.986 312.915,958.986 313.592,958.986 314.27,958.986 314.947,958.987 315.624,958.987 316.301,958.987 316.979,958.987 317.656,958.987 318.333,958.988 319.01,958.988 319.688,958.988 320.365,958.988 321.042,958.988 321.719,958.988 322.396,958.989 323.074,958.989 323.751,958.989 324.428,958.989 325.105,958.989 325.783,958.989 326.46,958.99 327.137,958.99 327.814,958.99 328.492,958.99 329.169,958.99 329.846,958.99 330.523,958.99 331.201,958.99 331.878,958.991 332.555,958.991 333.232,958.991 333.91,958.991 334.587,958.991 335.264,958.991 335.941,958.991 336.619,958.991 337.296,958.991 337.973,958.992 338.65,958.992 339.328,958.992 340.005,958.992 340.682,958.992 341.359,958.992 342.037,958.992 342.714,958.992 343.391,958.992 344.068,958.992 344.746,958.993 345.423,958.993 346.1,958.993 346.777,958.993 347.455,958.993 348.132,958.993 348.809,958.993 349.486,958.993 350.164,958.993 350.841,958.993 351.518,958.993 352.195,958.993 352.873,958.993 353.55,958.994 354.227,958.994 354.904,958.994 355.582,958.994 356.259,958.994 356.936,958.994 357.613,958.994 358.291,958.994 358.968,958.994 359.645,958.994 360.322,958.994 361,958.994 361.677,958.994 362.354,958.994 363.031,958.994 363.708,958.994 364.386,958.995 365.063,958.995 365.74,958.995 366.417,958.995 367.095,958.995 367.772,958.995 368.449,958.995 369.126,958.995 369.804,958.995 370.481,958.995 371.158,958.995 371.835,958.995 372.513,958.995 373.19,958.995 373.867,958.995 374.544,958.995 375.222,958.995 375.899,958.995 376.576,958.995 377.253,958.995 377.931,958.995 378.608,958.995 379.285,958.996 379.962,958.996 380.64,958.996 381.317,958.996 381.994,958.996 382.671,958.996 383.349,958.996 384.026,958.996 384.703,958.996 385.38,958.996 386.058,958.996 386.735,958.996 387.412,958.996 388.089,958.996 388.767,958.996 389.444,958.996 390.121,958.996 390.798,958.996 391.476,958.996 392.153,958.996 392.83,958.996 393.507,958.996 394.185,958.996 394.862,958.996 395.539,958.996 396.216,958.996 396.894,958.996 397.571,958.996 398.248,958.996 398.925,958.996 399.603,958.997 400.28,958.997 400.957,958.997 401.634,958.997 402.312,958.997 402.989,958.997 403.666,958.997 404.343,958.997 405.021,958.997 405.698,958.997 406.375,958.997 407.052,958.997 407.729,958.997 408.407,958.997 409.084,958.997 409.761,958.997 410.438,958.997 411.116,958.997 411.793,958.997 412.47,958.997 413.147,958.997 413.825,958.997 414.502,958.997 415.179,958.997 415.856,958.997 416.534,958.997 417.211,958.997 417.888,958.997 418.565,958.997 419.243,958.997 419.92,958.997 420.597,958.997 421.274,958.997 421.952,958.997 422.629,958.997 423.306,958.997 423.983,958.997 424.661,958.997 425.338,958.997 426.015,958.997 426.692,958.997 427.37,958.997 428.047,958.997 428.724,958.997 429.401,958.997 430.079,958.997 430.756,958.997 431.433,958.997 432.11,958.997 432.788,958.997 433.465,958.997 434.142,958.998 434.819,958.998 435.497,958.998 436.174,958.998 436.851,958.998 437.528,958.998 438.206,958.998 438.883,958.998 439.56,958.998 440.237,958.998 440.915,958.998 441.592,958.998 442.269,958.998 442.946,958.998 443.624,958.998 444.301,958.998 444.978,958.998 445.655,958.998 446.333,958.998 447.01,958.998 447.687,958.998 448.364,958.998 449.042,958.998 449.719,958.998 450.396,958.998 451.073,958.998 451.75,958.998 452.428,958.998 453.105,958.998 453.782,958.998 454.459,958.998 455.137,958.998 455.814,958.998 456.491,958.998 457.168,958.998 457.846,958.998 458.523,958.998 459.2,958.998 459.877,958.998 460.555,958.998 461.232,958.998 461.909,958.998 462.586,958.998 463.264,958.998 463.941,958.998 464.618,958.998 465.295,958.998 465.973,958.998 466.65,958.998 467.327,958.998 468.004,958.998 468.682,958.998 469.359,958.998 470.036,958.998 470.713,958.998 471.391,958.998 472.068,958.998 472.745,958.998 473.422,958.998 474.1,958.998 474.777,958.998 475.454,958.998 476.131,958.998 476.809,958.998 477.486,958.998 478.163,958.998 478.84,958.998 479.518,958.998 480.195,958.998 480.872,958.998 481.549,958.998 482.227,958.998 482.904,958.998 483.581,958.998 484.258,958.998 484.936,958.998 485.613,958.998 486.29,958.998 486.967,958.998 487.645,958.998 488.322,958.998 488.999,958.998 489.676,958.998 490.354,958.998 491.031,958.998 491.708,958.998 492.385,958.998 493.063,958.998 493.74,958.998 494.417,958.998 495.094,958.998 495.771,958.998 496.449,958.998 497.126,958.998 497.803,958.998 498.48,958.999 499.158,958.999 499.835,958.999 500.512,958.999 501.189,958.999 501.867,958.999 502.544,958.999 503.221,958.999 503.898,958.999 504.576,958.999 505.253,958.999 505.93,958.999 506.607,958.999 507.285,958.999 507.962,958.999 508.639,958.999 509.316,958.999 509.994,958.999 510.671,958.999 511.348,958.999 512.025,958.999 512.703,958.999 513.38,958.999 514.057,958.999 514.734,958.999 515.412,958.999 516.089,958.999 516.766,958.999 517.443,958.999 518.121,958.999 518.798,958.999 519.475,958.999 520.152,958.999 520.83,958.999 521.507,958.999 522.184,958.999 522.861,958.999 523.539,958.999 524.216,958.999 524.893,958.999 525.57,958.999 526.248,958.999 526.925,958.999 527.602,958.999 528.279,958.999 528.957,958.999 529.634,958.999 530.311,958.999 530.988,958.999 531.666,958.999 532.343,958.999 533.02,958.999 533.697,958.999 534.375,958.999 535.052,958.999 535.729,958.999 536.406,958.999 537.083,958.999 537.761,958.999 538.438,958.999 539.115,958.999 539.792,958.999 540.47,958.999 541.147,958.999 541.824,958.999 542.501,958.999 543.179,958.999 543.856,958.999 544.533,958.999 545.21,958.999 545.888,958.999 546.565,958.999 547.242,958.999 547.919,958.999 548.597,958.999 549.274,958.999 549.951,958.999 550.628,958.999 551.306,958.999 551.983,958.999 552.66,958.999 553.337,958.999 554.015,958.999 554.692,958.999 555.369,958.999 556.046,958.999 556.724,958.999 557.401,958.999 558.078,958.999 558.755,958.999 559.433,958.999 560.11,958.999 560.787,958.999 561.464,958.999 562.142,958.999 562.819,958.999 563.496,958.999 564.173,958.999 564.851,958.999 565.528,958.999 566.205,958.999 566.882,958.999 567.56,958.999 568.237,958.999 568.914,958.999 569.591,958.999 570.269,958.999 570.946,958.999 571.623,958.999 572.3,958.999 572.978,958.999 573.655,958.999 574.332,958.999 575.009,958.999 575.687,958.999 576.364,958.999 577.041,958.999 577.718,958.999 578.396,958.999 579.073,958.999 579.75,958.999 580.427,958.999 581.104,958.999 581.782,958.999 582.459,958.999 583.136,958.999 583.813,958.999 584.491,958.999 585.168,958.999 585.845,958.999 586.522,958.999 587.2,958.999 587.877,958.999 588.554,958.999 589.231,958.999 589.909,958.999 590.586,958.999 591.263,958.999 591.94,958.999 592.618,958.999 593.295,958.999 593.972,958.999 594.649,958.999 595.327,958.999 596.004,958.999 596.681,958.999 597.358,958.999 598.036,958.999 598.713,958.999 599.39,958.999 600.067,958.999 600.745,958.999 601.422,958.999 602.099,958.999 602.776,958.999 603.454,958.999 604.131,958.999 604.808,958.999 605.485,958.999 606.163,958.999 606.84,958.999 607.517,958.999 608.194,958.999 608.872,958.999 609.549,958.999 610.226,958.999 610.903,958.999 611.581,958.999 612.258,958.999 612.935,958.999 613.612,958.999 614.29,958.999 614.967,958.999 615.644,958.999 616.321,958.999 616.999,958.999 617.676,958.999 618.353,958.999 619.03,958.999 619.708,958.999 620.385,958.999 621.062,958.999 621.739,958.999 622.417,958.999 623.094,958.999 623.771,958.999 624.448,958.999 625.125,958.999 625.803,958.999 626.48,958.999 627.157,958.999 627.834,958.999 628.512,958.999 629.189,958.999 629.866,958.999 630.543,958.999 631.221,958.999 631.898,958.999 632.575,958.999 633.252,958.999 633.93,958.999 634.607,958.999 635.284,958.999 635.961,958.999 636.639,958.999 637.316,958.999 637.993,958.999 638.67,958.999 639.348,958.999 640.025,958.999 640.702,958.999 641.379,958.999 642.057,958.999 642.734,958.999 643.411,958.999 644.088,958.999 644.766,958.999 645.443,958.999 646.12,958.999 646.797,958.999 647.475,958.999 648.152,958.999 648.829,958.999 649.506,958.999 650.184,958.999 650.861,958.999 651.538,958.999 652.215,958.999 652.893,958.999 653.57,958.999 654.247,958.999 654.924,958.999 655.602,958.999 656.279,958.999 656.956,958.999 657.633,958.999 658.311,958.999 658.988,958.999 659.665,958.999 660.342,958.999 661.02,958.999 661.697,958.999 662.374,958.999 663.051,958.999 663.729,958.999 664.406,958.999 665.083,958.999 665.76,958.999 666.438,958.999 667.115,958.999 667.792,958.999 668.469,958.999 669.146,958.999 669.824,958.999 670.501,958.999 671.178,958.999 671.855,958.999 672.533,958.999 673.21,958.999 673.887,958.999 674.564,958.999 675.242,958.999 675.919,958.999 676.596,958.999 677.273,958.999 677.951,958.999 678.628,958.999 679.305,958.999 679.982,958.999 680.66,958.999 681.337,958.999 682.014,958.999 682.691,958.999 683.369,958.999 684.046,958.999 684.723,958.999 685.4,958.999 686.078,958.999 686.755,958.999 687.432,958.999 688.109,958.999 688.787,958.999 689.464,958.999 690.141,958.999 690.818,958.999 691.496,958.999 692.173,958.999 692.85,958.999 693.527,958.999 694.205,958.999 694.882,958.999 695.559,958.999 696.236,958.999 696.914,958.999 697.591,958.999 698.268,958.999 698.945,958.999 699.623,958.999 700.3,958.999 700.977,958.999 701.654,958.999 702.332,958.999 703.009,958.999 703.686,958.999 704.363,958.999 705.041,958.999 705.718,958.999 706.395,958.999 707.072,958.999 707.75,958.999 708.427,958.999 709.104,958.999 709.781,958.999 710.458,958.999 711.136,958.999 711.813,958.999 712.49,958.999 713.167,958.999 713.845,958.999 714.522,958.999 715.199,958.999 715.876,958.999 716.554,958.999 717.231,958.999 717.908,958.999 718.585,958.999 719.263,958.999 719.94,958.999 720.617,958.999 721.294,958.999 721.972,958.999 722.649,958.999 723.326,958.999 724.003,958.999 724.681,958.999 725.358,958.999 726.035,958.999 726.712,958.999 727.39,958.999 728.067,958.999 728.744,958.999 729.421,958.999 730.099,958.999 730.776,958.999 731.453,958.999 732.13,958.999 732.808,958.999 733.485,958.999 734.162,958.999 734.839,958.999 735.517,958.999 736.194,958.999 736.871,958.999 737.548,958.999 738.226,958.999 738.903,958.999 739.58,958.999 740.257,958.999 740.935,958.999 741.612,958.999 742.289,958.999 742.966,958.999 743.644,958.999 744.321,958.999 744.998,958.999 745.675,958.999 746.353,958.999 747.03,958.999 747.707,958.999 748.384,958.999 749.062,958.999 749.739,958.999 750.416,958.999 751.093,958.999 751.771,958.999 752.448,958.999 753.125,958.999 753.802,958.999 754.479,958.999 755.157,958.999 755.834,958.999 756.511,958.999 757.188,958.999 757.866,958.999 758.543,958.999 759.22,958.999 759.897,958.999 760.575,958.999 761.252,958.999 761.929,958.999 762.606,958.999 763.284,958.999 763.961,958.999 764.638,958.999 765.315,958.999 765.993,958.999 766.67,958.999 767.347,958.999 768.024,958.999 768.702,958.999 769.379,958.999 770.056,958.999 770.733,958.999 771.411,958.999 772.088,958.999 772.765,958.999 773.442,958.999 774.12,958.999 774.797,958.999 775.474,958.999 776.151,958.999 776.829,958.999 777.506,958.999 778.183,958.999 778.86,958.999 779.538,958.999 780.215,958.999 780.892,958.999 781.569,958.999 782.247,958.999 782.924,958.999 783.601,958.999 784.278,958.999 784.956,958.999 785.633,958.999 786.31,958.999 786.987,958.999 787.665,958.999 788.342,958.999 789.019,958.999 789.696,958.999 790.374,958.999 791.051,958.999 791.728,958.999 792.405,958.999 793.083,958.999 793.76,958.999 794.437,958.999 795.114,958.999 795.792,958.999 796.469,958.999 797.146,958.999 797.823,958.999 798.5,958.999 799.178,958.999 799.855,958.999 800.532,958.999 801.209,958.999 801.887,958.999 802.564,958.999 803.241,958.999 803.918,958.999 804.596,959 805.273,959 805.95,959 806.627,959 807.305,959 807.982,959 808.659,959 809.336,959 810.014,959 810.691,959 811.368,959 812.045,959 812.723,959 813.4,959 814.077,959 814.754,959 815.432,959 816.109,959 816.786,959 817.463,959 818.141,959 818.818,959 819.495,959 820.172,959 820.85,959 821.527,959 822.204,959 822.881,959 823.559,959 824.236,959 824.913,959 825.59,959 826.268,959 826.945,959 827.622,959 828.299,959 828.977,959 829.654,959 830.331,959 831.008,959 831.686,959 832.363,959 833.04,959 833.717,959 834.395,959 835.072,959 835.749,959 836.426,959 837.104,959 837.781,959 838.458,959 839.135,959 839.813,959 840.49,959 841.167,959 841.844,959 842.521,959 843.199,959 843.876,959 844.553,959 845.23,959 845.908,959 846.585,959 847.262,959 847.939,959 848.617,959 849.294,959 849.971,959 850.648,959 851.326,959 852.003,959 852.68,959 853.357,959 854.035,959 854.712,959 855.389,959 856.066,959 856.744,959 857.421,959 858.098,959 858.775,959 859.453,959 860.13,959 860.807,959 861.484,959 862.162,959 862.839,959 863.516,959 864.193,959 864.871,959 865.548,959 866.225,959 866.902,959 867.58,959 868.257,959 868.934,959 869.611,959 870.289,959 870.966,959 871.643,959 872.32,959 872.998,959 873.675,959 874.352,959 875.029,959 875.707,959 876.384,959 877.061,959 877.738,959 878.416,959 879.093,959 879.77,959 880.447,959 881.125,959 881.802,959 882.479,959 883.156,959 883.833,959 884.511,959 885.188,959 885.865,959 886.542,959 887.22,959 887.897,959 888.574,959 889.251,959 889.929,959 890.606,959 891.283,959 891.96,959 892.638,959 893.315,959 893.992,959 894.669,959 895.347,959 896.024,959 896.701,959 897.378,959 898.056,959 898.733,959 899.41,959 900.087,959 900.765,959 901.442,959 902.119,959 902.796,959 903.474,959 904.151,959 904.828,959 905.505,959 906.183,959 906.86,959 907.537,959 908.214,959 908.892,959 909.569,959 910.246,959 910.923,959 911.601,959 912.278,959 912.955,959 913.632,959 914.31,959 914.987,959 915.664,959 916.341,959 917.019,959 917.696,959 918.373,959 919.05,959 919.728,959 920.405,959 921.082,959 921.759,959 922.437,959 923.114,959 923.791,959 924.468,959 925.146,959 925.823,959 926.5,959 927.177,959 927.854,959 928.532,959 929.209,959 929.886,959 930.563,959 931.241,959 931.918,959 932.595,959 933.272,959 933.95,959 934.627,959 935.304,959 935.981,959 936.659,959 937.336,959 938.013,959 938.69,959 939.368,959 940.045,959 940.722,959 941.399,959 942.077,959 942.754,959 943.431,959 944.108,959 944.786,959 945.463,959 946.14,959 946.817,959 947.495,959 948.172,959 948.849,959 949.526,959 950.204,959 950.881,959 951.558,959 952.235,959 952.913,959 953.59,959 954.267,959 954.944,959 955.622,959 956.299,959 956.976,959 957.653,959 958.331,959 959.008,959 959.685,959 960.362,959 961.04,959 961.717,959 962.394,959 963.071,959 963.749,959 964.426,959 965.103,959 965.78,959 966.458,959 967.135,959 967.812,959 968.489,959 969.167,959 969.844,959 970.521,959 971.198,959 971.875,959 972.553,959 973.23,959 973.907,959 974.584,959 975.262,959 975.939,959 976.616,959 977.293,959 977.971,959 978.648,959 979.325,959 980.002,959 980.68,959 981.357,959 982.034,959 982.711,959 983.389,959 984.066,959 984.743,959 985.42,959 986.098,959 986.775,959 987.452,959 988.129,959 988.807,959 989.484,959 990.161,959 990.838,959 991.516,959 992.193,959 992.87,959 993.547,959 994.225,959 994.902,959 995.579,959 996.256,959 996.934,959 997.611,959 998.288,959 998.965,959 999.643,959 1000.32,959 1001,959 1001.67,959 1002.35,959 1003.03,959 1003.71,959 1004.38,959 1005.06,959 1005.74,959 1006.42,959 1007.09,959 1007.77,959 1008.45,959 1009.12,959 1009.8,959 1010.48,959 1011.16,959 1011.83,959 1012.51,959 1013.19,959 1013.86,959 1014.54,959 1015.22,959 1015.9,959 1016.57,959 1017.25,959 1017.93,959 1018.61,959 1019.28,959 1019.96,959 1020.64,959 1021.31,959 1021.99,959 1022.67,959 1023.35,959 1024.02,959 1024.7,959 1025.38,959 1026.06,959 1026.73,959 1027.41,959 1028.09,959 1028.76,959 1029.44,959 1030.12,959 1030.8,959 1031.47,959 1032.15,959 1032.83,959 1033.5,959 1034.18,959 1034.86,959 1035.54,959 1036.21,959 1036.89,959 1037.57,959 1038.25,959 1038.92,959 1039.6,959 1040.28,959 1040.95,959 1041.63,959 1042.31,959 1042.99,959 1043.66,959 1044.34,959 1045.02,959 1045.7,959 1046.37,959 1047.05,959 1047.73,959 1048.4,959 1049.08,958.999 1049.76,958.999 1050.44,958.999 1051.11,958.999 1051.79,958.999 1052.47,958.999 1053.15,958.999 1053.82,958.999 1054.5,958.999 1055.18,958.999 1055.85,958.999 1056.53,958.999 1057.21,958.999 1057.89,958.999 1058.56,958.999 1059.24,958.999 1059.92,958.999 1060.59,958.999 1061.27,958.999 1061.95,958.999 1062.63,958.999 1063.3,958.999 1063.98,958.999 1064.66,958.999 1065.34,958.999 1066.01,958.999 1066.69,958.999 1067.37,958.999 1068.04,958.999 1068.72,958.999 1069.4,958.999 1070.08,958.999 1070.75,958.999 1071.43,958.999 1072.11,958.999 1072.79,958.999 1073.46,958.999 1074.14,958.999 1074.82,958.999 1075.49,958.999 1076.17,958.999 1076.85,958.999 1077.53,958.999 1078.2,958.999 1078.88,958.999 1079.56,958.999 1080.23,958.999 1080.91,958.999 1081.59,958.999 1082.27,958.999 1082.94,958.999 1083.62,958.999 1084.3,958.999 1084.98,958.999 1085.65,958.999 1086.33,958.999 1087.01,958.999 1087.68,958.999 1088.36,958.999 1089.04,958.999 1089.72,958.999 1090.39,958.999 1091.07,958.999 1091.75,958.999 1092.43,958.999 1093.1,958.999 1093.78,958.999 1094.46,958.999 1095.13,958.999 1095.81,958.999 1096.49,958.999 1097.17,958.999 1097.84,958.999 1098.52,958.999 1099.2,958.999 1099.88,958.999 1100.55,958.999 1101.23,958.999 1101.91,958.999 1102.58,958.999 1103.26,958.999 1103.94,958.999 1104.62,958.999 1105.29,958.999 1105.97,958.999 1106.65,958.999 1107.32,958.999 1108,958.999 1108.68,958.999 1109.36,958.999 1110.03,958.999 1110.71,958.999 1111.39,958.999 1112.07,958.999 1112.74,958.999 1113.42,958.999 1114.1,958.999 1114.77,958.999 1115.45,958.999 1116.13,958.999 1116.81,958.999 1117.48,958.999 1118.16,958.999 1118.84,958.999 1119.52,958.999 1120.19,958.999 1120.87,958.999 1121.55,958.999 1122.22,958.999 1122.9,958.999 1123.58,958.999 1124.26,958.999 1124.93,958.999 1125.61,958.999 1126.29,958.999 1126.96,958.999 1127.64,958.999 1128.32,958.999 1129,958.999 1129.67,958.999 1130.35,958.999 1131.03,958.999 1131.71,958.999 1132.38,958.999 1133.06,958.999 1133.74,958.999 1134.41,958.999 1135.09,958.999 1135.77,958.999 1136.45,958.999 1137.12,958.999 1137.8,958.999 1138.48,958.999 1139.16,958.999 1139.83,958.999 1140.51,958.999 1141.19,958.999 1141.86,958.999 1142.54,958.999 1143.22,958.999 1143.9,958.999 1144.57,958.999 1145.25,958.999 1145.93,958.999 1146.6,958.999 1147.28,958.999 1147.96,958.999 1148.64,958.999 1149.31,958.999 1149.99,958.999 1150.67,958.999 1151.35,958.999 1152.02,958.999 1152.7,958.999 1153.38,958.999 1154.05,958.999 1154.73,958.999 1155.41,958.999 1156.09,958.999 1156.76,958.999 1157.44,958.999 1158.12,958.999 1158.8,958.999 1159.47,958.999 1160.15,958.999 1160.83,958.999 1161.5,958.999 1162.18,958.999 1162.86,958.999 1163.54,958.999 1164.21,958.999 1164.89,958.999 1165.57,958.999 1166.25,958.999 1166.92,958.999 1167.6,958.999 1168.28,958.999 1168.95,958.999 1169.63,958.999 1170.31,958.999 1170.99,958.999 1171.66,958.999 1172.34,958.999 1173.02,958.999 1173.69,958.999 1174.37,958.999 1175.05,958.999 1175.73,958.999 1176.4,958.999 1177.08,958.999 1177.76,958.999 1178.44,958.999 1179.11,958.999 1179.79,958.999 1180.47,958.999 1181.14,958.999 1181.82,958.999 1182.5,958.999 1183.18,958.999 1183.85,958.999 1184.53,958.999 1185.21,958.999 1185.89,958.999 1186.56,958.999 1187.24,958.999 1187.92,958.999 1188.59,958.999 1189.27,958.999 1189.95,958.999 1190.63,958.999 1191.3,958.999 1191.98,958.999 1192.66,958.999 1193.33,958.999 1194.01,958.999 1194.69,958.999 1195.37,958.999 1196.04,958.999 1196.72,958.999 1197.4,958.999 1198.08,958.999 1198.75,958.999 1199.43,958.999 1200.11,958.999 1200.78,958.999 1201.46,958.999 1202.14,958.999 1202.82,958.999 1203.49,958.999 1204.17,958.999 1204.85,958.999 1205.53,958.999 1206.2,958.999 1206.88,958.999 1207.56,958.999 1208.23,958.999 1208.91,958.999 1209.59,958.999 1210.27,958.999 1210.94,958.999 1211.62,958.999 1212.3,958.999 1212.98,958.999 1213.65,958.999 1214.33,958.999 1215.01,958.999 1215.68,958.999 1216.36,958.999 1217.04,958.999 1217.72,958.999 1218.39,958.999 1219.07,958.999 1219.75,958.999 1220.42,958.999 1221.1,958.999 1221.78,958.999 1222.46,958.999 1223.13,958.999 1223.81,958.999 1224.49,958.999 1225.17,958.999 1225.84,958.999 1226.52,958.999 1227.2,958.999 1227.87,958.999 1228.55,958.999 1229.23,958.999 1229.91,958.999 1230.58,958.999 1231.26,958.999 1231.94,958.999 1232.62,958.999 1233.29,958.999 1233.97,958.999 1234.65,958.999 1235.32,958.999 1236,958.999 1236.68,958.999 1237.36,958.999 1238.03,958.999 1238.71,958.999 1239.39,958.999 1240.06,958.999 1240.74,958.999 1241.42,958.999 1242.1,958.999 1242.77,958.999 1243.45,958.999 1244.13,958.999 1244.81,958.999 1245.48,958.999 1246.16,958.999 1246.84,958.999 1247.51,958.999 1248.19,958.999 1248.87,958.999 1249.55,958.999 1250.22,958.999 1250.9,958.999 1251.58,958.999 1252.26,958.999 1252.93,958.999 1253.61,958.999 1254.29,958.999 1254.96,958.999 1255.64,958.999 1256.32,958.999 1257,958.999 1257.67,958.999 1258.35,958.999 1259.03,958.999 1259.71,958.999 1260.38,958.999 1261.06,958.999 1261.74,958.999 1262.41,958.999 1263.09,958.999 1263.77,958.999 1264.45,958.999 1265.12,958.999 1265.8,958.999 1266.48,958.999 1267.15,958.999 1267.83,958.999 1268.51,958.999 1269.19,958.999 1269.86,958.999 1270.54,958.999 1271.22,958.999 1271.9,958.999 1272.57,958.999 1273.25,958.999 1273.93,958.999 1274.6,958.999 1275.28,958.999 1275.96,958.999 1276.64,958.999 1277.31,958.999 1277.99,958.999 1278.67,958.999 1279.35,958.999 1280.02,958.999 1280.7,958.999 1281.38,958.999 1282.05,958.999 1282.73,958.999 1283.41,958.999 1284.09,958.999 1284.76,958.999 1285.44,958.999 1286.12,958.999 1286.79,958.999 1287.47,958.999 1288.15,958.999 1288.83,958.999 1289.5,958.999 1290.18,958.999 1290.86,958.999 1291.54,958.999 1292.21,958.999 1292.89,958.999 1293.57,958.999 1294.24,958.999 1294.92,958.999 1295.6,958.999 1296.28,958.999 1296.95,958.999 1297.63,958.999 1298.31,958.999 1298.99,958.999 1299.66,958.999 1300.34,958.999 1301.02,958.999 1301.69,958.999 1302.37,958.999 1303.05,958.999 1303.73,958.999 1304.4,958.999 1305.08,958.999 1305.76,958.999 1306.44,958.999 1307.11,958.999 1307.79,958.999 1308.47,958.999 1309.14,958.999 1309.82,958.999 1310.5,958.999 1311.18,958.999 1311.85,958.999 1312.53,958.999 1313.21,958.999 1313.88,958.999 1314.56,958.999 1315.24,958.999 1315.92,958.999 1316.59,958.999 1317.27,958.999 1317.95,958.999 1318.63,958.999 1319.3,958.999 1319.98,958.999 1320.66,958.999 1321.33,958.999 1322.01,958.999 1322.69,958.999 1323.37,958.999 1324.04,958.999 1324.72,958.999 1325.4,958.999 1326.08,958.999 1326.75,958.999 1327.43,958.999 1328.11,958.999 1328.78,958.999 1329.46,958.999 1330.14,958.999 1330.82,958.999 1331.49,958.999 1332.17,958.999 1332.85,958.999 1333.52,958.999 1334.2,958.999 1334.88,958.999 1335.56,958.999 1336.23,958.999 1336.91,958.999 1337.59,958.999 1338.27,958.999 1338.94,958.999 1339.62,958.999 1340.3,958.999 1340.97,958.999 1341.65,958.999 1342.33,958.999 1343.01,958.999 1343.68,958.999 1344.36,958.999 1345.04,958.999 1345.72,958.999 1346.39,958.999 1347.07,958.999 1347.75,958.999 1348.42,958.999 1349.1,958.999 1349.78,958.999 1350.46,958.999 1351.13,958.999 1351.81,958.999 1352.49,958.999 1353.17,958.999 1353.84,958.999 1354.52,958.999 1355.2,958.998 1355.87,958.998 1356.55,958.998 1357.23,958.998 1357.91,958.998 1358.58,958.998 1359.26,958.998 1359.94,958.998 1360.61,958.998 1361.29,958.998 1361.97,958.998 1362.65,958.998 1363.32,958.998 1364,958.998 1364.68,958.998 1365.36,958.998 1366.03,958.998 1366.71,958.998 1367.39,958.998 1368.06,958.998 1368.74,958.998 1369.42,958.998 1370.1,958.998 1370.77,958.998 1371.45,958.998 1372.13,958.998 1372.81,958.998 1373.48,958.998 1374.16,958.998 1374.84,958.998 1375.51,958.998 1376.19,958.998 1376.87,958.998 1377.55,958.998 1378.22,958.998 1378.9,958.998 1379.58,958.998 1380.25,958.998 1380.93,958.998 1381.61,958.998 1382.29,958.998 1382.96,958.998 1383.64,958.998 1384.32,958.998 1385,958.998 1385.67,958.998 1386.35,958.998 1387.03,958.998 1387.7,958.998 1388.38,958.998 1389.06,958.998 1389.74,958.998 1390.41,958.998 1391.09,958.998 1391.77,958.998 1392.45,958.998 1393.12,958.998 1393.8,958.998 1394.48,958.998 1395.15,958.998 1395.83,958.998 1396.51,958.998 1397.19,958.998 1397.86,958.998 1398.54,958.998 1399.22,958.998 1399.9,958.998 1400.57,958.998 1401.25,958.998 1401.93,958.998 1402.6,958.998 1403.28,958.998 1403.96,958.998 1404.64,958.998 1405.31,958.998 1405.99,958.998 1406.67,958.998 1407.34,958.998 1408.02,958.998 1408.7,958.998 1409.38,958.998 1410.05,958.998 1410.73,958.998 1411.41,958.998 1412.09,958.998 1412.76,958.998 1413.44,958.998 1414.12,958.998 1414.79,958.998 1415.47,958.998 1416.15,958.998 1416.83,958.998 1417.5,958.998 1418.18,958.998 1418.86,958.998 1419.54,958.997 1420.21,958.997 1420.89,958.997 1421.57,958.997 1422.24,958.997 1422.92,958.997 1423.6,958.997 1424.28,958.997 1424.95,958.997 1425.63,958.997 1426.31,958.997 1426.98,958.997 1427.66,958.997 1428.34,958.997 1429.02,958.997 1429.69,958.997 1430.37,958.997 1431.05,958.997 1431.73,958.997 1432.4,958.997 1433.08,958.997 1433.76,958.997 1434.43,958.997 1435.11,958.997 1435.79,958.997 1436.47,958.997 1437.14,958.997 1437.82,958.997 1438.5,958.997 1439.18,958.997 1439.85,958.997 1440.53,958.997 1441.21,958.997 1441.88,958.997 1442.56,958.997 1443.24,958.997 1443.92,958.997 1444.59,958.997 1445.27,958.997 1445.95,958.997 1446.63,958.997 1447.3,958.997 1447.98,958.997 1448.66,958.997 1449.33,958.997 1450.01,958.997 1450.69,958.997 1451.37,958.997 1452.04,958.997 1452.72,958.997 1453.4,958.997 1454.07,958.996 1454.75,958.996 1455.43,958.996 1456.11,958.996 1456.78,958.996 1457.46,958.996 1458.14,958.996 1458.82,958.996 1459.49,958.996 1460.17,958.996 1460.85,958.996 1461.52,958.996 1462.2,958.996 1462.88,958.996 1463.56,958.996 1464.23,958.996 1464.91,958.996 1465.59,958.996 1466.27,958.996 1466.94,958.996 1467.62,958.996 1468.3,958.996 1468.97,958.996 1469.65,958.996 1470.33,958.996 1471.01,958.996 1471.68,958.996 1472.36,958.996 1473.04,958.996 1473.71,958.996 1474.39,958.995 1475.07,958.995 1475.75,958.995 1476.42,958.995 1477.1,958.995 1477.78,958.995 1478.46,958.995 1479.13,958.995 1479.81,958.995 1480.49,958.995 1481.16,958.995 1481.84,958.995 1482.52,958.995 1483.2,958.995 1483.87,958.995 1484.55,958.995 1485.23,958.995 1485.91,958.995 1486.58,958.995 1487.26,958.995 1487.94,958.995 1488.61,958.995 1489.29,958.994 1489.97,958.994 1490.65,958.994 1491.32,958.994 1492,958.994 1492.68,958.994 1493.35,958.994 1494.03,958.994 1494.71,958.994 1495.39,958.994 1496.06,958.994 1496.74,958.994 1497.42,958.994 1498.1,958.994 1498.77,958.994 1499.45,958.994 1500.13,958.993 1500.8,958.993 1501.48,958.993 1502.16,958.993 1502.84,958.993 1503.51,958.993 1504.19,958.993 1504.87,958.993 1505.55,958.993 1506.22,958.993 1506.9,958.993 1507.58,958.993 1508.25,958.993 1508.93,958.992 1509.61,958.992 1510.29,958.992 1510.96,958.992 1511.64,958.992 1512.32,958.992 1513,958.992 1513.67,958.992 1514.35,958.992 1515.03,958.992 1515.7,958.991 1516.38,958.991 1517.06,958.991 1517.74,958.991 1518.41,958.991 1519.09,958.991 1519.77,958.991 1520.44,958.991 1521.12,958.991 1521.8,958.99 1522.48,958.99 1523.15,958.99 1523.83,958.99 1524.51,958.99 1525.19,958.99 1525.86,958.99 1526.54,958.99 1527.22,958.989 1527.89,958.989 1528.57,958.989 1529.25,958.989 1529.93,958.989 1530.6,958.989 1531.28,958.988 1531.96,958.988 1532.64,958.988 1533.31,958.988 1533.99,958.988 1534.67,958.988 1535.34,958.987 1536.02,958.987 1536.7,958.987 1537.38,958.987 1538.05,958.987 1538.73,958.986 1539.41,958.986 1540.08,958.986 1540.76,958.986 1541.44,958.985 1542.12,958.985 1542.79,958.985 1543.47,958.985 1544.15,958.984 1544.83,958.984 1545.5,958.984 1546.18,958.984 1546.86,958.983 1547.53,958.983 1548.21,958.983 1548.89,958.982 1549.57,958.982 1550.24,958.982 1550.92,958.982 1551.6,958.981 1552.28,958.981 1552.95,958.98 1553.63,958.98 1554.31,958.98 1554.98,958.979 1555.66,958.979 1556.34,958.979 1557.02,958.978 1557.69,958.978 1558.37,958.977 1559.05,958.977 1559.73,958.976 1560.4,958.976 1561.08,958.975 1561.76,958.975 1562.43,958.974 1563.11,958.974 1563.79,958.973 1564.47,958.973 1565.14,958.972 1565.82,958.971 1566.5,958.971 1567.17,958.97 1567.85,958.969 1568.53,958.969 1569.21,958.968 1569.88,958.967 1570.56,958.967 1571.24,958.966 1571.92,958.965 1572.59,958.964 1573.27,958.963 1573.95,958.962 1574.62,958.962 1575.3,958.961 1575.98,958.96 1576.66,958.959 1577.33,958.958 1578.01,958.957 1578.69,958.955 1579.37,958.954 1580.04,958.953 1580.72,958.952 1581.4,958.951 1582.07,958.949 1582.75,958.948 1583.43,958.947 1584.11,958.945 1584.78,958.944 1585.46,958.942 1586.14,958.94 1586.81,958.939 1587.49,958.937 1588.17,958.935 1588.85,958.932 1589.52,958.93 1590.2,958.927 1590.88,958.923 1591.56,958.918 1592.23,958.912 1592.91,958.902 1593.59,958.889 1594.26,958.869 1594.94,958.837 1595.62,958.782 1596.3,958.684 1596.97,958.492 1597.65,958.074 1598.33,956.979 1599.01,952.997 1599.68,918.734 1600.36,545.353 1601.04,937.577 1601.71,950.752 1602.39,954.08 1603.07,955.424 1603.75,956.09 1604.42,956.453 1605.1,956.654 1605.78,956.753 1606.46,956.783 1607.13,956.756 1607.81,956.678 1608.49,956.548 1609.16,956.361 1609.84,956.102 1610.52,955.748 1611.2,955.259 1611.87,954.562 1612.55,953.511 1613.23,951.786 1613.9,948.53 1614.58,940.714 1615.26,910.043 1615.94,164.019 1616.61,787.892 1617.29,921.414 1617.97,934.626 1618.65,934.747 1619.32,930.747 " />
</g>
</g>
</svg>
