<?xml version="1.0" encoding="UTF-8" standalone="no"?>
<svg width="237.067mm" height="142.875mm"
 viewBox="0 0 672 405"
 xmlns="http://www.w3.org/2000/svg" xmlns:xlink="http://www.w3.org/1999/xlink"  version="1.2" baseProfile="tiny">
<title>Qt SVG Document</title>
<desc>MATLAB, The MathWorks, Inc. Version 25.1.0.2943329 R2025a</desc>
<defs>
</defs>
<g fill="none" stroke="black" stroke-width="1" fill-rule="evenodd" stroke-linecap="square" stroke-linejoin="bevel" >

<g fill="#ffffff" fill-opacity="1" stroke="none" transform="matrix(0.375,0,0,0.375,0,0)"
font-family="SimSun" font-size="9" font-weight="400" font-style="normal" 
>
<path vector-effect="none" fill-rule="evenodd" d="M0,0 L1791,0 L1791,1079 L0,1079 L0,0"/>
</g>

<g fill="#ffffff" fill-opacity="1" stroke="none" transform="matrix(3.75e-05,0,0,3.75e-05,0,0)"
font-family="SimSun" font-size="9" font-weight="400" font-style="normal" 
>
<path vector-effect="none" fill-rule="evenodd" d="M2.33e+06,810000 L2.33e+06,9.59e+06 L1.62e+07,9.59e+06 L1.62e+07,810000 L2.33e+06,810000"/>
</g>

<g fill="#212121" fill-opacity="0.14902" stroke="#212121" stroke-opacity="0.14902" stroke-width="1.33333" stroke-linecap="butt" stroke-linejoin="round" transform="matrix(0.375,0,0,0.375,0,0)"
font-family="SimSun" font-size="9" font-weight="400" font-style="normal" 
>
<polyline fill="none" vector-effect="none" points="233,81 233,959 " />
<polyline fill="none" vector-effect="none" points="510.4,81 510.4,959 " />
<polyline fill="none" vector-effect="none" points="787.8,81 787.8,959 " />
<polyline fill="none" vector-effect="none" points="1065.2,81 1065.2,959 " />
<polyline fill="none" vector-effect="none" points="1342.6,81 1342.6,959 " />
<polyline fill="none" vector-effect="none" points="1620,81 1620,959 " />
<polyline fill="none" vector-effect="none" points="233,959 1620,959 " />
<polyline fill="none" vector-effect="none" points="233,861.444 1620,861.444 " />
<polyline fill="none" vector-effect="none" points="233,763.889 1620,763.889 " />
<polyline fill="none" vector-effect="none" points="233,666.333 1620,666.333 " />
<polyline fill="none" vector-effect="none" points="233,568.778 1620,568.778 " />
<polyline fill="none" vector-effect="none" points="233,471.222 1620,471.222 " />
<polyline fill="none" vector-effect="none" points="233,373.667 1620,373.667 " />
<polyline fill="none" vector-effect="none" points="233,276.111 1620,276.111 " />
<polyline fill="none" vector-effect="none" points="233,178.556 1620,178.556 " />
<polyline fill="none" vector-effect="none" points="233,81 1620,81 " />
</g>

<g fill="#212121" fill-opacity="1" stroke="#212121" stroke-opacity="1" stroke-width="1" stroke-linecap="square" stroke-linejoin="bevel" transform="matrix(0.375,0,0,0.375,320.438,386)"
font-family="Helvetica" font-size="29" font-weight="400" font-style="normal" 
>
<text fill="#212121" fill-opacity="1" stroke="none" xml:space="preserve" x="0" y="0" font-family="Helvetica" font-size="29" font-weight="400" font-style="normal" 
 >t (samples)</text>
</g>

<g fill="#212121" fill-opacity="1" stroke="#212121" stroke-opacity="1" stroke-width="1.33333" stroke-linecap="square" stroke-linejoin="round" transform="matrix(0.375,0,0,0.375,0,0)"
font-family="Helvetica" font-size="29" font-weight="400" font-style="normal" 
>
<polyline fill="none" vector-effect="none" points="233,959 1620,959 " />
<polyline fill="none" vector-effect="none" points="233,81 1620,81 " />
<polyline fill="none" vector-effect="none" points="233,959 233,945.13 " />
<polyline fill="none" vector-effect="none" points="233,94.87 233,81 " />
<polyline fill="none" vector-effect="none" points="510.4,959 510.4,945.13 " />
<polyline fill="none" vector-effect="none" points="510.4,94.87 510.4,81 " />
<polyline fill="none" vector-effect="none" points="787.8,959 787.8,945.13 " />
<polyline fill="none" vector-effect="none" points="787.8,94.87 787.8,81 " />
<polyline fill="none" vector-effect="none" points="1065.2,959 1065.2,945.13 " />
<polyline fill="none" vector-effect="none" points="1065.2,94.87 1065.2,81 " />
<polyline fill="none" vector-effect="none" points="1342.6,959 1342.6,945.13 " />
<polyline fill="none" vector-effect="none" points="1342.6,94.87 1342.6,81 " />
<polyline fill="none" vector-effect="none" points="1620,959 1620,945.13 " />
<polyline fill="none" vector-effect="none" points="1620,94.87 1620,81 " />
</g>

<g fill="#212121" fill-opacity="1" stroke="#212121" stroke-opacity="1" stroke-width="1" stroke-linecap="square" stroke-linejoin="bevel" transform="matrix(0.375,0,0,0.375,84.75,372.625)"
font-family="Helvetica" font-size="26" font-weight="400" font-style="normal" 
>
<text fill="#212121" fill-opacity="1" stroke="none" xml:space="preserve" x="0" y="0" font-family="Helvetica" font-size="26" font-weight="400" font-style="normal" 
 >0</text>
</g>

<g fill="#212121" fill-opacity="1" stroke="#212121" stroke-opacity="1" stroke-width="1" stroke-linecap="square" stroke-linejoin="bevel" transform="matrix(0.375,0,0,0.375,183.525,372.625)"
font-family="Helvetica" font-size="26" font-weight="400" font-style="normal" 
>
<text fill="#212121" fill-opacity="1" stroke="none" xml:space="preserve" x="0" y="0" font-family="Helvetica" font-size="26" font-weight="400" font-style="normal" 
 >500</text>
</g>

<g fill="#212121" fill-opacity="1" stroke="#212121" stroke-opacity="1" stroke-width="1" stroke-linecap="square" stroke-linejoin="bevel" transform="matrix(0.375,0,0,0.375,284.925,372.625)"
font-family="Helvetica" font-size="26" font-weight="400" font-style="normal" 
>
<text fill="#212121" fill-opacity="1" stroke="none" xml:space="preserve" x="0" y="0" font-family="Helvetica" font-size="26" font-weight="400" font-style="normal" 
 >1000</text>
</g>

<g fill="#212121" fill-opacity="1" stroke="#212121" stroke-opacity="1" stroke-width="1" stroke-linecap="square" stroke-linejoin="bevel" transform="matrix(0.375,0,0,0.375,388.95,372.625)"
font-family="Helvetica" font-size="26" font-weight="400" font-style="normal" 
>
<text fill="#212121" fill-opacity="1" stroke="none" xml:space="preserve" x="0" y="0" font-family="Helvetica" font-size="26" font-weight="400" font-style="normal" 
 >1500</text>
</g>

<g fill="#212121" fill-opacity="1" stroke="#212121" stroke-opacity="1" stroke-width="1" stroke-linecap="square" stroke-linejoin="bevel" transform="matrix(0.375,0,0,0.375,492.975,372.625)"
font-family="Helvetica" font-size="26" font-weight="400" font-style="normal" 
>
<text fill="#212121" fill-opacity="1" stroke="none" xml:space="preserve" x="0" y="0" font-family="Helvetica" font-size="26" font-weight="400" font-style="normal" 
 >2000</text>
</g>

<g fill="#212121" fill-opacity="1" stroke="#212121" stroke-opacity="1" stroke-width="1" stroke-linecap="square" stroke-linejoin="bevel" transform="matrix(0.375,0,0,0.375,597,372.625)"
font-family="Helvetica" font-size="26" font-weight="400" font-style="normal" 
>
<text fill="#212121" fill-opacity="1" stroke="none" xml:space="preserve" x="0" y="0" font-family="Helvetica" font-size="26" font-weight="400" font-style="normal" 
 >2500</text>
</g>

<g fill="#212121" fill-opacity="1" stroke="#212121" stroke-opacity="1" stroke-width="1" stroke-linecap="square" stroke-linejoin="bevel" transform="matrix(0,-0.375,0.375,0,68.75,203.063)"
font-family="Helvetica" font-size="29" font-weight="400" font-style="normal" 
>
<text fill="#212121" fill-opacity="1" stroke="none" xml:space="preserve" x="0" y="0" font-family="Helvetica" font-size="29" font-weight="400" font-style="normal" 
 >x(t)</text>
</g>

<g fill="#212121" fill-opacity="1" stroke="#212121" stroke-opacity="1" stroke-width="1.33333" stroke-linecap="square" stroke-linejoin="round" transform="matrix(0.375,0,0,0.375,0,0)"
font-family="Helvetica" font-size="29" font-weight="400" font-style="normal" 
>
<polyline fill="none" vector-effect="none" points="233,959 233,81 " />
<polyline fill="none" vector-effect="none" points="1620,959 1620,81 " />
<polyline fill="none" vector-effect="none" points="233,959 246.87,959 " />
<polyline fill="none" vector-effect="none" points="1606.13,959 1620,959 " />
<polyline fill="none" vector-effect="none" points="233,861.444 246.87,861.444 " />
<polyline fill="none" vector-effect="none" points="1606.13,861.444 1620,861.444 " />
<polyline fill="none" vector-effect="none" points="233,763.889 246.87,763.889 " />
<polyline fill="none" vector-effect="none" points="1606.13,763.889 1620,763.889 " />
<polyline fill="none" vector-effect="none" points="233,666.333 246.87,666.333 " />
<polyline fill="none" vector-effect="none" points="1606.13,666.333 1620,666.333 " />
<polyline fill="none" vector-effect="none" points="233,568.778 246.87,568.778 " />
<polyline fill="none" vector-effect="none" points="1606.13,568.778 1620,568.778 " />
<polyline fill="none" vector-effect="none" points="233,471.222 246.87,471.222 " />
<polyline fill="none" vector-effect="none" points="1606.13,471.222 1620,471.222 " />
<polyline fill="none" vector-effect="none" points="233,373.667 246.87,373.667 " />
<polyline fill="none" vector-effect="none" points="1606.13,373.667 1620,373.667 " />
<polyline fill="none" vector-effect="none" points="233,276.111 246.87,276.111 " />
<polyline fill="none" vector-effect="none" points="1606.13,276.111 1620,276.111 " />
<polyline fill="none" vector-effect="none" points="233,178.556 246.87,178.556 " />
<polyline fill="none" vector-effect="none" points="1606.13,178.556 1620,178.556 " />
<polyline fill="none" vector-effect="none" points="233,81 246.87,81 " />
<polyline fill="none" vector-effect="none" points="1606.13,81 1620,81 " />
</g>

<g fill="#212121" fill-opacity="1" stroke="#212121" stroke-opacity="1" stroke-width="1" stroke-linecap="square" stroke-linejoin="bevel" transform="matrix(0.375,0,0,0.375,74.75,363)"
font-family="Helvetica" font-size="26" font-weight="400" font-style="normal" 
>
<text fill="#212121" fill-opacity="1" stroke="none" xml:space="preserve" x="0" y="0" font-family="Helvetica" font-size="26" font-weight="400" font-style="normal" 
 >-5</text>
</g>

<g fill="#212121" fill-opacity="1" stroke="#212121" stroke-opacity="1" stroke-width="1" stroke-linecap="square" stroke-linejoin="bevel" transform="matrix(0.375,0,0,0.375,74.75,326.417)"
font-family="Helvetica" font-size="26" font-weight="400" font-style="normal" 
>
<text fill="#212121" fill-opacity="1" stroke="none" xml:space="preserve" x="0" y="0" font-family="Helvetica" font-size="26" font-weight="400" font-style="normal" 
 >-4</text>
</g>

<g fill="#212121" fill-opacity="1" stroke="#212121" stroke-opacity="1" stroke-width="1" stroke-linecap="square" stroke-linejoin="bevel" transform="matrix(0.375,0,0,0.375,74.75,289.833)"
font-family="Helvetica" font-size="26" font-weight="400" font-style="normal" 
>
<text fill="#212121" fill-opacity="1" stroke="none" xml:space="preserve" x="0" y="0" font-family="Helvetica" font-size="26" font-weight="400" font-style="normal" 
 >-3</text>
</g>

<g fill="#212121" fill-opacity="1" stroke="#212121" stroke-opacity="1" stroke-width="1" stroke-linecap="square" stroke-linejoin="bevel" transform="matrix(0.375,0,0,0.375,74.75,253.25)"
font-family="Helvetica" font-size="26" font-weight="400" font-style="normal" 
>
<text fill="#212121" fill-opacity="1" stroke="none" xml:space="preserve" x="0" y="0" font-family="Helvetica" font-size="26" font-weight="400" font-style="normal" 
 >-2</text>
</g>

<g fill="#212121" fill-opacity="1" stroke="#212121" stroke-opacity="1" stroke-width="1" stroke-linecap="square" stroke-linejoin="bevel" transform="matrix(0.375,0,0,0.375,74.75,216.667)"
font-family="Helvetica" font-size="26" font-weight="400" font-style="normal" 
>
<text fill="#212121" fill-opacity="1" stroke="none" xml:space="preserve" x="0" y="0" font-family="Helvetica" font-size="26" font-weight="400" font-style="normal" 
 >-1</text>
</g>

<g fill="#212121" fill-opacity="1" stroke="#212121" stroke-opacity="1" stroke-width="1" stroke-linecap="square" stroke-linejoin="bevel" transform="matrix(0.375,0,0,0.375,78.125,180.083)"
font-family="Helvetica" font-size="26" font-weight="400" font-style="normal" 
>
<text fill="#212121" fill-opacity="1" stroke="none" xml:space="preserve" x="0" y="0" font-family="Helvetica" font-size="26" font-weight="400" font-style="normal" 
 >0</text>
</g>

<g fill="#212121" fill-opacity="1" stroke="#212121" stroke-opacity="1" stroke-width="1" stroke-linecap="square" stroke-linejoin="bevel" transform="matrix(0.375,0,0,0.375,78.125,143.5)"
font-family="Helvetica" font-size="26" font-weight="400" font-style="normal" 
>
<text fill="#212121" fill-opacity="1" stroke="none" xml:space="preserve" x="0" y="0" font-family="Helvetica" font-size="26" font-weight="400" font-style="normal" 
 >1</text>
</g>

<g fill="#212121" fill-opacity="1" stroke="#212121" stroke-opacity="1" stroke-width="1" stroke-linecap="square" stroke-linejoin="bevel" transform="matrix(0.375,0,0,0.375,78.125,106.917)"
font-family="Helvetica" font-size="26" font-weight="400" font-style="normal" 
>
<text fill="#212121" fill-opacity="1" stroke="none" xml:space="preserve" x="0" y="0" font-family="Helvetica" font-size="26" font-weight="400" font-style="normal" 
 >2</text>
</g>

<g fill="#212121" fill-opacity="1" stroke="#212121" stroke-opacity="1" stroke-width="1" stroke-linecap="square" stroke-linejoin="bevel" transform="matrix(0.375,0,0,0.375,78.125,70.3333)"
font-family="Helvetica" font-size="26" font-weight="400" font-style="normal" 
>
<text fill="#212121" fill-opacity="1" stroke="none" xml:space="preserve" x="0" y="0" font-family="Helvetica" font-size="26" font-weight="400" font-style="normal" 
 >3</text>
</g>

<g fill="#212121" fill-opacity="1" stroke="#212121" stroke-opacity="1" stroke-width="1" stroke-linecap="square" stroke-linejoin="bevel" transform="matrix(0.375,0,0,0.375,78.125,33.75)"
font-family="Helvetica" font-size="26" font-weight="400" font-style="normal" 
>
<text fill="#212121" fill-opacity="1" stroke="none" xml:space="preserve" x="0" y="0" font-family="Helvetica" font-size="26" font-weight="400" font-style="normal" 
 >4</text>
</g>

<g fill="#212121" fill-opacity="1" stroke="#212121" stroke-opacity="1" stroke-width="1" stroke-linecap="square" stroke-linejoin="bevel" transform="matrix(0.375,0,0,0.375,339.375,26.7187)"
font-family="Helvetica" font-size="29" font-weight="400" font-style="normal" 
>
<text fill="#212121" fill-opacity="1" stroke="none" xml:space="preserve" x="0" y="0" font-family="Helvetica" font-size="29" font-weight="400" font-style="normal" 
 >x(t)</text>
</g>

<g fill="none" stroke="#0000ff" stroke-opacity="1" stroke-width="1.33333" stroke-linecap="butt" stroke-linejoin="round" transform="matrix(0.375,0,0,0.375,0,0)"
font-family="Helvetica" font-size="29" font-weight="400" font-style="normal" 
>
<polyline fill="none" vector-effect="none" points="233,559.022 233.555,559.767 234.11,561.673 234.664,564.724 235.219,568.895 235.774,574.155 236.329,580.46 236.884,587.763 237.438,596.006 237.993,605.126 238.548,615.051 239.103,625.705 239.658,637.007 240.212,648.869 240.767,661.2 241.322,673.905 241.877,686.887 242.432,700.047 242.986,713.285 243.541,726.499 244.096,739.59 244.651,752.459 245.206,765.008 245.76,777.142 246.315,788.772 246.87,799.81 247.425,810.175 247.98,819.791 248.534,828.588 249.089,836.502 249.644,843.477 250.199,849.465 250.754,854.425 251.308,858.326 251.863,861.143 252.418,862.862 252.973,863.476 253.528,862.99 254.082,861.413 254.637,858.767 255.192,855.081 255.747,850.392 256.302,844.746 256.856,838.195 257.411,830.799 257.966,822.626 258.521,813.748 259.076,804.244 259.63,794.197 260.185,783.696 260.74,772.83 261.295,761.695 261.85,750.385 262.404,738.999 262.959,727.633 263.514,716.386 264.069,705.352 264.624,694.626 265.178,684.3 265.733,674.461 266.288,665.192 266.843,656.574 267.398,648.679 267.952,641.575 268.507,635.322 269.062,629.974 269.617,625.576 270.172,622.167 270.726,619.777 271.281,618.426 271.836,618.128 272.391,618.886 272.946,620.694 273.5,623.54 274.055,627.4 274.61,632.243 275.165,638.03 275.72,644.714 276.274,652.24 276.829,660.546 277.384,669.563 277.939,679.217 278.494,689.427 279.048,700.107 279.603,711.17 280.158,722.522 280.713,734.068 281.268,745.71 281.822,757.349 282.377,768.888 282.932,780.227 283.487,791.269 284.042,801.919 284.596,812.084 285.151,821.675 285.706,830.608 286.261,838.802 286.816,846.184 287.37,852.684 287.925,858.242 288.48,862.802 289.035,866.319 289.59,868.754 290.144,870.075 290.699,870.262 291.254,869.301 291.809,867.188 292.364,863.927 292.918,859.532 293.473,854.026 294.028,847.437 294.583,839.807 295.138,831.181 295.692,821.615 296.247,811.17 296.802,799.914 297.357,787.924 297.912,775.277 298.466,762.06 299.021,748.362 299.576,734.276 300.131,719.897 300.686,705.323 301.24,690.653 301.795,675.985 302.35,661.419 302.905,647.052 303.46,632.979 304.014,619.295 304.569,606.087 305.124,593.442 305.679,581.44 306.234,570.156 306.788,559.659 307.343,550.01 307.898,541.266 308.453,533.472 309.008,526.67 309.562,520.89 310.117,516.154 310.672,512.477 311.227,509.864 311.782,508.311 312.336,507.807 312.891,508.328 313.446,509.847 314.001,512.325 314.556,515.716 315.11,519.967 315.665,525.016 316.22,530.797 316.775,537.237 317.33,544.255 317.884,551.77 318.439,559.691 318.994,567.929 319.549,576.389 320.104,584.974 320.658,593.588 321.213,602.132 321.768,610.51 322.323,618.625 322.878,626.383 323.432,633.693 323.987,640.466 324.542,646.62 325.097,652.076 325.652,656.759 326.206,660.603 326.761,663.548 327.316,665.539 327.871,666.532 328.426,666.488 328.98,665.379 329.535,663.183 330.09,659.887 330.645,655.49 331.2,649.995 331.754,643.418 332.309,635.782 332.864,627.117 333.419,617.464 333.974,606.871 334.528,595.393 335.083,583.092 335.638,570.039 336.193,556.307 336.748,541.979 337.302,527.139 337.857,511.879 338.412,496.29 338.967,480.47 339.522,464.517 340.076,448.529 340.631,432.607 341.186,416.85 341.741,401.356 342.296,386.221 342.85,371.538 343.405,357.398 343.96,343.886 344.515,331.083 345.07,319.065 345.624,307.899 346.179,297.65 346.734,288.372 347.289,280.113 347.844,272.913 348.398,266.803 348.953,261.807 349.508,257.937 350.063,255.2 350.618,253.593 351.172,253.102 351.727,253.707 352.282,255.378 352.837,258.077 353.392,261.759 353.946,266.369 354.501,271.848 355.056,278.128 355.611,285.134 356.166,292.79 356.72,301.01 357.275,309.706 357.83,318.786 358.385,328.158 358.94,337.723 359.494,347.384 360.049,357.045 360.604,366.606 361.159,375.972 361.714,385.048 362.268,393.742 362.823,401.966 363.378,409.637 363.933,416.675 364.488,423.005 365.042,428.562 365.597,433.283 366.152,437.115 366.707,440.011 367.262,441.934 367.816,442.853 368.371,442.747 368.926,441.604 369.481,439.418 370.036,436.196 370.59,431.95 371.145,426.704 371.7,420.487 372.255,413.34 372.81,405.308 373.364,396.448 373.919,386.82 374.474,376.494 375.029,365.543 375.584,354.048 376.138,342.095 376.693,329.771 377.248,317.17 377.803,304.386 378.358,291.518 378.912,278.663 379.467,265.921 380.022,253.389 380.577,241.165 381.132,229.345 381.686,218.02 382.241,207.279 382.796,197.208 383.351,187.885 383.906,179.386 384.46,171.779 385.015,165.124 385.57,159.477 386.125,154.883 386.68,151.382 387.234,149.004 387.789,147.771 388.344,147.695 388.899,148.782 389.454,151.025 390.008,154.413 390.563,158.923 391.118,164.523 391.673,171.176 392.228,178.833 392.782,187.44 393.337,196.936 393.892,207.251 394.447,218.312 395.002,230.038 395.556,242.343 396.111,255.139 396.666,268.332 397.221,281.828 397.776,295.527 398.33,309.333 398.885,323.145 399.44,336.865 399.995,350.396 400.55,363.64 401.104,376.506 401.659,388.904 402.214,400.749 402.769,411.96 403.324,422.463 403.878,432.188 404.433,441.073 404.988,449.063 405.543,456.111 406.098,462.178 406.652,467.231 407.207,471.249 407.762,474.217 408.317,476.13 408.872,476.993 409.426,476.816 409.981,475.622 410.536,473.44 411.091,470.308 411.646,466.272 412.2,461.385 412.755,455.709 413.31,449.309 413.865,442.261 414.42,434.643 414.974,426.537 415.529,418.034 416.084,409.223 416.639,400.2 417.194,391.059 417.748,381.9 418.303,372.818 418.858,363.912 419.413,355.278 419.968,347.01 420.522,339.198 421.077,331.932 421.632,325.294 422.187,319.364 422.742,314.215 423.296,309.914 423.851,306.521 424.406,304.09 424.961,302.666 425.516,302.287 426.07,302.984 426.625,304.775 427.18,307.674 427.735,311.684 428.29,316.8 428.844,323.007 429.399,330.282 429.954,338.593 430.509,347.901 431.064,358.158 431.618,369.309 432.173,381.29 432.728,394.032 433.283,407.461 433.838,421.495 434.392,436.048 434.947,451.031 435.502,466.35 436.057,481.908 436.612,497.608 437.166,513.35 437.721,529.034 438.276,544.562 438.831,559.834 439.386,574.756 439.94,589.232 440.495,603.174 441.05,616.495 441.605,629.115 442.16,640.958 442.714,651.956 443.269,662.044 443.824,671.169 444.379,679.283 444.934,686.344 445.488,692.323 446.043,697.196 446.598,700.949 447.153,703.576 447.708,705.08 448.262,705.475 448.817,704.781 449.372,703.028 449.927,700.253 450.482,696.502 451.036,691.829 451.591,686.294 452.146,679.965 452.701,672.914 453.256,665.222 453.81,656.971 454.365,648.25 454.92,639.15 455.475,629.766 456.03,620.194 456.584,610.531 457.139,600.875 457.694,591.323 458.249,581.973 458.804,572.918 459.358,564.249 459.913,556.056 460.468,548.422 461.023,541.425 461.578,535.141 462.132,529.636 462.687,524.971 463.242,521.199 463.797,518.368 464.352,516.515 464.906,515.67 465.461,515.854 466.016,517.08 466.571,519.352 467.126,522.665 467.68,527.005 468.235,532.35 468.79,538.668 469.345,545.921 469.9,554.062 470.454,563.034 471.009,572.778 471.564,583.223 472.119,594.295 472.674,605.915 473.228,617.997 473.783,630.451 474.338,643.185 474.893,656.104 475.448,669.111 476.002,682.106 476.557,694.991 477.112,707.668 477.667,720.038 478.222,732.008 478.776,743.483 479.331,754.376 479.886,764.602 480.441,774.079 480.996,782.735 481.55,790.501 482.105,797.315 482.66,803.122 483.215,807.877 483.77,811.54 484.324,814.081 484.879,815.478 485.434,815.718 485.989,814.796 486.544,812.717 487.098,809.494 487.653,805.15 488.208,799.715 488.763,793.228 489.318,785.736 489.872,777.293 490.427,767.962 490.982,757.81 491.537,746.913 492.092,735.35 492.646,723.207 493.201,710.572 493.756,697.538 494.311,684.202 494.866,670.66 495.42,657.011 495.975,643.354 496.53,629.787 497.085,616.409 497.64,603.315 498.194,590.598 498.749,578.347 499.304,566.647 499.859,555.58 500.414,545.218 500.968,535.632 501.523,526.884 502.078,519.028 502.633,512.112 503.188,506.175 503.742,501.248 504.297,497.354 504.852,494.508 505.407,492.713 505.962,491.966 506.516,492.256 507.071,493.56 507.626,495.848 508.181,499.084 508.736,503.22 509.29,508.203 509.845,513.974 510.4,520.463 510.955,527.597 511.51,535.299 512.064,543.483 512.619,552.062 513.174,560.945 513.729,570.036 514.284,579.24 514.838,588.46 515.393,597.598 515.948,606.556 516.503,615.238 517.058,623.55 517.612,631.401 518.167,638.703 518.722,645.372 519.277,651.328 519.832,656.5 520.386,660.819 520.941,664.226 521.496,666.666 522.051,668.094 522.606,668.473 523.16,667.772 523.715,665.972 524.27,663.059 524.825,659.03 525.38,653.891 525.934,647.657 526.489,640.349 527.044,632 527.599,622.65 528.154,612.346 528.708,601.144 529.263,589.106 529.818,576.302 530.373,562.807 530.928,548.702 531.482,534.073 532.037,519.01 532.592,503.605 533.147,487.957 533.702,472.161 534.256,456.319 534.811,440.53 535.366,424.892 535.921,409.505 536.476,394.464 537.03,379.863 537.585,365.792 538.14,352.337 538.695,339.578 539.25,327.591 539.804,316.446 540.359,306.204 540.914,296.921 541.469,288.646 542.024,281.417 542.578,275.266 543.133,270.217 543.688,266.284 544.243,263.471 544.798,261.777 545.352,261.187 545.907,261.682 546.462,263.233 547.017,265.8 547.572,269.339 548.126,273.796 548.681,279.111 549.236,285.215 549.791,292.037 550.346,299.497 550.9,307.511 551.455,315.991 552.01,324.846 552.565,333.981 553.12,343.301 553.674,352.708 554.229,362.104 554.784,371.392 555.339,380.475 555.894,389.26 556.448,397.654 557.003,405.57 557.558,412.923 558.113,419.635 558.668,425.632 559.222,430.847 559.777,435.219 560.332,438.693 560.887,441.225 561.442,442.776 561.996,443.316 562.551,442.824 563.106,441.288 563.661,438.703 564.216,435.074 564.77,430.416 565.325,424.751 565.88,418.11 566.435,410.533 566.99,402.066 567.544,392.764 568.099,382.69 568.654,371.913 569.209,360.506 569.764,348.551 570.318,336.132 570.873,323.339 571.428,310.264 571.983,297.004 572.538,283.655 573.092,270.316 573.647,257.086 574.202,244.063 574.757,231.346 575.312,219.029 575.866,207.205 576.421,195.964 576.976,185.389 577.531,175.562 578.086,166.556 578.64,158.441 579.195,151.277 579.75,145.119 580.305,140.014 580.86,136 581.414,133.11 581.969,131.363 582.524,130.774 583.079,131.348 583.634,133.079 584.188,135.954 584.743,139.952 585.298,145.042 585.853,151.185 586.408,158.333 586.962,166.434 587.517,175.424 588.072,185.236 588.627,195.795 589.182,207.021 589.736,218.83 590.291,231.131 590.846,243.833 591.401,256.84 591.956,270.054 592.51,283.378 593.065,296.711 593.62,309.956 594.175,323.016 594.73,335.793 595.284,348.196 595.839,360.136 596.394,371.527 596.949,382.289 597.504,392.347 598.058,401.633 598.613,410.084 599.168,417.646 599.723,424.271 600.278,429.921 600.832,434.563 601.387,438.175 601.942,440.744 602.497,442.265 603.052,442.741 603.606,442.185 604.161,440.618 604.716,438.07 605.271,434.579 605.826,430.192 606.38,424.961 606.935,418.948 607.49,412.219 608.045,404.85 608.6,396.918 609.154,388.507 609.709,379.706 610.264,370.606 610.819,361.302 611.374,351.889 611.928,342.466 612.483,333.129 613.038,323.977 613.593,315.105 614.148,306.608 614.702,298.577 615.257,291.101 615.812,284.262 616.367,278.14 616.922,272.809 617.476,268.335 618.031,264.779 618.586,262.194 619.141,260.626 619.696,260.114 620.25,260.686 620.805,262.363 621.36,265.158 621.915,269.073 622.47,274.105 623.024,280.238 623.579,287.448 624.134,295.706 624.689,304.971 625.244,315.195 625.798,326.322 626.353,338.291 626.908,351.031 627.463,364.468 628.018,378.521 628.572,393.103 629.127,408.125 629.682,423.494 630.237,439.112 630.792,454.883 631.346,470.706 631.901,486.483 632.456,502.112 633.011,517.497 633.566,532.542 634.12,547.151 634.675,561.237 635.23,574.712 635.785,587.497 636.34,599.515 636.894,610.697 637.449,620.981 638.004,630.311 638.559,638.64 639.114,645.927 639.668,652.141 640.223,657.26 640.778,661.268 641.333,664.16 641.888,665.94 642.442,666.62 642.997,666.22 643.552,664.771 644.107,662.309 644.662,658.881 645.216,654.541 645.771,649.347 646.326,643.369 646.881,636.678 647.436,629.355 647.99,621.482 648.545,613.147 649.1,604.443 649.655,595.463 650.21,586.302 650.764,577.06 651.319,567.833 651.874,558.719 652.429,549.813 652.984,541.211 653.538,533.003 654.093,525.278 654.648,518.12 655.203,511.607 655.758,505.813 656.312,500.805 656.867,496.645 657.422,493.385 657.977,491.072 658.532,489.744 659.086,489.43 659.641,490.151 660.196,491.921 660.751,494.742 661.306,498.611 661.86,503.512 662.415,509.423 662.97,516.314 663.525,524.144 664.08,532.866 664.634,542.425 665.189,552.76 665.744,563.801 666.299,575.474 666.854,587.698 667.408,600.388 667.963,613.455 668.518,626.806 669.073,640.344 669.628,653.973 670.182,667.594 670.737,681.108 671.292,694.416 671.847,707.421 672.402,720.027 672.956,732.142 673.511,743.675 674.066,754.543 674.621,764.665 675.176,773.967 675.73,782.38 676.285,789.842 676.84,796.298 677.395,801.703 677.95,806.016 678.504,809.208 679.059,811.256 679.614,812.146 680.169,811.875 680.724,810.446 681.278,807.873 681.833,804.178 682.388,799.391 682.943,793.55 683.498,786.704 684.052,778.905 684.607,770.216 685.162,760.704 685.717,750.445 686.272,739.518 686.826,728.008 687.381,716.004 687.936,703.599 688.491,690.888 689.046,677.967 689.6,664.936 690.155,651.894 690.71,638.939 691.265,626.169 691.82,613.678 692.374,601.559 692.929,589.903 693.484,578.793 694.039,568.31 694.594,558.529 695.148,549.518 695.703,541.34 696.258,534.048 696.813,527.691 697.368,522.307 697.922,517.927 698.477,514.574 699.032,512.262 699.587,510.996 700.142,510.771 700.696,511.576 701.251,513.388 701.806,516.177 702.361,519.907 702.916,524.53 703.47,529.993 704.025,536.235 704.58,543.188 705.135,550.779 705.69,558.929 706.244,567.553 706.799,576.564 707.354,585.87 707.909,595.376 708.464,604.987 709.018,614.605 709.573,624.131 710.128,633.469 710.683,642.522 711.238,651.197 711.792,659.4 712.347,667.045 712.902,674.047 713.457,680.328 714.012,685.814 714.566,690.439 715.121,694.14 715.676,696.865 716.231,698.569 716.786,699.212 717.34,698.766 717.895,697.21 718.45,694.532 719.005,690.727 719.56,685.802 720.114,679.77 720.669,672.656 721.224,664.489 721.779,655.31 722.334,645.167 722.888,634.115 723.443,622.216 723.998,609.541 724.553,596.163 725.108,582.165 725.662,567.632 726.217,552.653 726.772,537.323 727.327,521.738 727.882,505.995 728.436,490.193 728.991,474.434 729.546,458.816 730.101,443.437 730.656,428.393 731.21,413.779 731.765,399.683 732.32,386.192 732.875,373.387 733.43,361.343 733.984,350.129 734.539,339.808 735.094,330.435 735.649,322.058 736.204,314.718 736.758,308.445 737.313,303.263 737.868,299.185 738.423,296.219 738.978,294.359 739.532,293.594 740.087,293.904 740.642,295.258 741.197,297.619 741.752,300.941 742.306,305.171 742.861,310.248 743.416,316.106 743.971,322.671 744.526,329.863 745.08,337.601 745.635,345.794 746.19,354.353 746.745,363.184 747.3,372.189 747.854,381.271 748.409,390.334 748.964,399.279 749.519,408.011 750.074,416.436 750.628,424.461 751.183,431.999 751.738,438.966 752.293,445.283 752.848,450.877 753.402,455.681 753.957,459.633 754.512,462.681 755.067,464.778 755.622,465.886 756.176,465.976 756.731,465.027 757.286,463.026 757.841,459.969 758.396,455.862 758.95,450.719 759.505,444.562 760.06,437.423 760.615,429.34 761.17,420.363 761.724,410.544 762.279,399.948 762.834,388.642 763.389,376.702 763.944,364.207 764.498,351.244 765.053,337.901 765.608,324.273 766.163,310.453 766.718,296.541 767.272,282.634 767.827,268.832 768.382,255.234 768.937,241.938 769.492,229.038 770.046,216.627 770.601,204.796 771.156,193.629 771.711,183.206 772.266,173.601 772.82,164.885 773.375,157.117 773.93,150.354 774.485,144.642 775.04,140.019 775.594,136.518 776.149,134.16 776.704,132.958 777.259,132.917 777.814,134.033 778.368,136.293 778.923,139.674 779.478,144.148 780.033,149.674 780.588,156.207 781.142,163.691 781.697,172.066 782.252,181.263 782.807,191.208 783.362,201.822 783.916,213.019 784.471,224.71 785.026,236.804 785.581,249.204 786.136,261.814 786.69,274.536 787.245,287.269 787.8,299.917 788.355,312.382 788.91,324.568 789.464,336.383 790.019,347.737 790.574,358.547 791.129,368.731 791.684,378.215 792.238,386.931 792.793,394.816 793.348,401.816 793.903,407.885 794.458,412.982 795.012,417.077 795.567,420.147 796.122,422.179 796.677,423.168 797.232,423.118 797.786,422.042 798.341,419.961 798.896,416.904 799.451,412.911 800.006,408.028 800.56,402.308 801.115,395.812 801.67,388.608 802.225,380.769 802.78,372.375 803.334,363.51 803.889,354.262 804.444,344.723 804.999,334.986 805.554,325.149 806.108,315.31 806.663,305.565 807.218,296.012 807.773,286.749 808.328,277.869 808.882,269.463 809.437,261.62 809.992,254.424 810.547,247.954 811.102,242.283 811.656,237.478 812.211,233.601 812.766,230.704 813.321,228.834 813.876,228.028 814.43,228.317 814.985,229.72 815.54,232.251 816.095,235.912 816.65,240.699 817.204,246.597 817.759,253.584 818.314,261.627 818.869,270.688 819.424,280.718 819.978,291.662 820.533,303.458 821.088,316.035 821.643,329.32 822.198,343.231 822.752,357.682 823.307,372.584 823.862,387.843 824.417,403.362 824.972,419.044 825.526,434.79 826.081,450.499 826.636,466.073 827.191,481.412 827.746,496.422 828.3,511.008 828.855,525.081 829.41,538.554 829.965,551.347 830.52,563.385 831.074,574.598 831.629,584.923 832.184,594.306 832.739,602.698 833.294,610.059 833.848,616.358 834.403,621.571 834.958,625.685 835.513,628.694 836.068,630.602 836.622,631.419 837.177,631.169 837.732,629.878 838.287,627.586 838.842,624.339 839.396,620.188 839.951,615.196 840.506,609.428 841.061,602.959 841.616,595.867 842.17,588.235 842.725,580.152 843.28,571.709 843.835,563 844.39,554.121 844.944,545.169 845.499,536.242 846.054,527.437 846.609,518.851 847.164,510.577 847.718,502.707 848.273,495.328 848.828,488.526 849.383,482.377 849.938,476.957 850.492,472.331 851.047,468.561 851.602,465.7 852.157,463.795 852.712,462.882 853.266,462.991 853.821,464.144 854.376,466.353 854.931,469.622 855.486,473.944 856.04,479.308 856.595,485.688 857.15,493.055 857.705,501.368 858.26,510.58 858.814,520.637 859.369,531.475 859.924,543.026 860.479,555.214 861.034,567.96 861.588,581.178 862.143,594.779 862.698,608.668 863.253,622.751 863.808,636.93 864.362,651.107 864.917,665.18 865.472,679.053 866.027,692.627 866.582,705.807 867.136,718.499 867.691,730.615 868.246,742.068 868.801,752.78 869.356,762.674 869.91,771.684 870.465,779.745 871.02,786.805 871.575,792.814 872.13,797.736 872.684,801.538 873.239,804.198 873.794,805.704 874.349,806.049 874.904,805.238 875.458,803.285 876.013,800.211 876.568,796.046 877.123,790.828 877.678,784.606 878.232,777.431 878.787,769.367 879.342,760.48 879.897,750.846 880.452,740.544 881.006,729.658 881.561,718.278 882.116,706.496 882.671,694.406 883.226,682.107 883.78,669.696 884.335,657.272 884.89,644.933 885.445,632.777 886,620.898 886.554,609.39 887.109,598.341 887.664,587.836 888.219,577.956 888.774,568.773 889.328,560.359 889.883,552.773 890.438,546.07 890.993,540.298 891.548,535.495 892.102,531.693 892.657,528.913 893.212,527.17 893.767,526.467 894.322,526.802 894.876,528.16 895.431,530.521 895.986,533.855 896.541,538.123 897.096,543.279 897.65,549.269 898.205,556.031 898.76,563.5 899.315,571.599 899.87,580.251 900.424,589.372 900.979,598.872 901.534,608.66 902.089,618.641 902.644,628.72 903.198,638.799 903.753,648.778 904.308,658.562 904.863,668.053 905.418,677.158 905.972,685.783 906.527,693.842 907.082,701.251 907.637,707.929 908.192,713.805 908.746,718.809 909.301,722.883 909.856,725.971 910.411,728.028 910.966,729.017 911.52,728.907 912.075,727.678 912.63,725.317 913.185,721.82 913.74,717.194 914.294,711.451 914.849,704.615 915.404,696.718 915.959,687.798 916.514,677.905 917.068,667.092 917.623,655.423 918.178,642.967 918.733,629.799 919.288,615.999 919.842,601.654 920.397,586.854 920.952,571.691 921.507,556.263 922.062,540.666 922.616,525.001 923.171,509.367 923.726,493.863 924.281,478.588 924.836,463.637 925.39,449.105 925.945,435.081 926.5,421.651 927.055,408.895 927.61,396.89 928.164,385.704 928.719,375.4 929.274,366.033 929.829,357.652 930.384,350.296 930.938,343.997 931.493,338.778 932.048,334.652 932.603,331.627 933.158,329.697 933.712,328.852 934.267,329.07 934.822,330.322 935.377,332.57 935.932,335.769 936.486,339.865 937.041,344.798 937.596,350.5 938.151,356.899 938.706,363.915 939.26,371.466 939.815,379.463 940.37,387.814 940.925,396.427 941.48,405.204 942.034,414.049 942.589,422.864 943.144,431.552 943.699,440.016 944.254,448.163 944.808,455.901 945.363,463.142 945.918,469.803 946.473,475.805 947.028,481.074 947.582,485.543 948.137,489.152 948.692,491.847 949.247,493.583 949.802,494.321 950.356,494.033 950.911,492.696 951.466,490.299 952.021,486.839 952.576,482.319 953.13,476.755 953.685,470.17 954.24,462.595 954.795,454.068 955.35,444.639 955.904,434.362 956.459,423.299 957.014,411.52 957.569,399.099 958.124,386.118 958.678,372.661 959.233,358.818 959.788,344.682 960.343,330.349 960.898,315.918 961.452,301.486 962.007,287.154 962.562,273.019 963.117,259.18 963.672,245.733 964.226,232.771 964.781,220.382 965.336,208.653 965.891,197.663 966.446,187.488 967,178.196 967.555,169.849 968.11,162.502 968.665,156.203 969.22,150.99 969.774,146.895 970.329,143.939 970.884,142.137 971.439,141.494 971.994,142.004 972.548,143.656 973.103,146.427 973.658,150.288 974.213,155.2 974.768,161.117 975.322,167.984 975.877,175.74 976.432,184.317 976.987,193.642 977.542,203.634 978.096,214.208 978.651,225.277 979.206,236.748 979.761,248.525 980.316,260.513 980.87,272.612 981.425,284.724 981.98,296.751 982.535,308.595 983.09,320.163 983.644,331.36 984.199,342.099 984.754,352.294 985.309,361.865 985.864,370.739 986.418,378.847 986.973,386.126 987.528,392.524 988.083,397.992 988.638,402.492 989.192,405.993 989.747,408.472 990.302,409.917 990.857,410.323 991.412,409.694 991.966,408.042 992.521,405.389 993.076,401.766 993.631,397.211 994.186,391.77 994.74,385.498 995.295,378.454 995.85,370.708 996.405,362.333 996.96,353.408 997.514,344.017 998.069,334.25 998.624,324.197 999.179,313.954 999.734,303.616 1000.29,293.282 1000.84,283.05 1001.4,273.017 1001.95,263.28 1002.51,253.933 1003.06,245.068 1003.62,236.774 1004.17,229.133 1004.73,222.226 1005.28,216.127 1005.84,210.901 1006.39,206.611 1006.95,203.31 1007.5,201.044 1008.06,199.85 1008.61,199.759 1009.17,200.792 1009.72,202.961 1010.27,206.27 1010.83,210.713 1011.38,216.277 1011.94,222.938 1012.49,230.666 1013.05,239.42 1013.6,249.153 1014.16,259.809 1014.71,271.327 1015.27,283.637 1015.82,296.663 1016.38,310.326 1016.93,324.539 1017.49,339.212 1018.04,354.253 1018.6,369.565 1019.15,385.049 1019.71,400.608 1020.26,416.14 1020.82,431.547 1021.37,446.731 1021.93,461.596 1022.48,476.047 1023.04,489.996 1023.59,503.356 1024.14,516.046 1024.7,527.992 1025.25,539.124 1025.81,549.379 1026.36,558.702 1026.92,567.045 1027.47,574.368 1028.03,580.64 1028.58,585.838 1029.14,589.947 1029.69,592.961 1030.25,594.885 1030.8,595.73 1031.36,595.518 1031.91,594.276 1032.47,592.045 1033.02,588.868 1033.58,584.799 1034.13,579.899 1034.69,574.234 1035.24,567.879 1035.8,560.911 1036.35,553.414 1036.91,545.477 1037.46,537.19 1038.01,528.648 1038.57,519.946 1039.12,511.181 1039.68,502.452 1040.23,493.856 1040.79,485.488 1041.34,477.443 1041.9,469.811 1042.45,462.682 1043.01,456.138 1043.56,450.258 1044.12,445.115 1044.67,440.778 1045.23,437.306 1045.78,434.752 1046.34,433.163 1046.89,432.575 1047.45,433.02 1048,434.517 1048.56,437.079 1049.11,440.71 1049.67,445.404 1050.22,451.146 1050.78,457.915 1051.33,465.678 1051.88,474.396 1052.44,484.022 1052.99,494.499 1053.55,505.767 1054.1,517.755 1054.66,530.388 1055.21,543.586 1055.77,557.264 1056.32,571.331 1056.88,585.695 1057.43,600.259 1057.99,614.926 1058.54,629.597 1059.1,644.172 1059.65,658.552 1060.21,672.64 1060.76,686.339 1061.32,699.557 1061.87,712.204 1062.43,724.195 1062.98,735.449 1063.54,745.892 1064.09,755.454 1064.65,764.073 1065.2,771.695 1065.75,778.273 1066.31,783.766 1066.86,788.144 1067.42,791.384 1067.97,793.473 1068.53,794.406 1069.08,794.187 1069.64,792.828 1070.19,790.352 1070.75,786.787 1071.3,782.174 1071.86,776.557 1072.41,769.991 1072.97,762.538 1073.52,754.264 1074.08,745.245 1074.63,735.559 1075.19,725.292 1075.74,714.531 1076.3,703.369 1076.85,691.901 1077.41,680.224 1077.96,668.435 1078.52,656.634 1079.07,644.919 1079.62,633.386 1080.18,622.131 1080.73,611.245 1081.29,600.818 1081.84,590.935 1082.4,581.675 1082.95,573.112 1083.51,565.315 1084.06,558.346 1084.62,552.258 1085.17,547.099 1085.73,542.907 1086.28,539.713 1086.84,537.54 1087.39,536.4 1087.95,536.298 1088.5,537.23 1089.06,539.183 1089.61,542.135 1090.17,546.057 1090.72,550.909 1091.28,556.644 1091.83,563.21 1092.39,570.544 1092.94,578.58 1093.49,587.242 1094.05,596.452 1094.6,606.125 1095.16,616.173 1095.71,626.504 1096.27,637.023 1096.82,647.633 1097.38,658.237 1097.93,668.737 1098.49,679.034 1099.04,689.033 1099.6,698.638 1100.15,707.759 1100.71,716.305 1101.26,724.195 1101.82,731.347 1102.37,737.69 1102.93,743.154 1103.48,747.679 1104.04,751.212 1104.59,753.707 1105.15,755.124 1105.7,755.436 1106.26,754.62 1106.81,752.663 1107.36,749.563 1107.92,745.325 1108.47,739.961 1109.03,733.496 1109.58,725.961 1110.14,717.395 1110.69,707.845 1111.25,697.368 1111.8,686.024 1112.36,673.884 1112.91,661.023 1113.47,647.521 1114.02,633.464 1114.58,618.942 1115.13,604.048 1115.69,588.877 1116.24,573.529 1116.8,558.103 1117.35,542.697 1117.91,527.412 1118.46,512.345 1119.02,497.592 1119.57,483.247 1120.13,469.4 1120.68,456.136 1121.23,443.537 1121.79,431.677 1122.34,420.626 1122.9,410.447 1123.45,401.194 1124.01,392.916 1124.56,385.652 1125.12,379.434 1125.67,374.285 1126.23,370.22 1126.78,367.243 1127.34,365.352 1127.89,364.534 1128.45,364.768 1129,366.026 1129.56,368.268 1130.11,371.451 1130.67,375.52 1131.22,380.414 1131.78,386.068 1132.33,392.407 1132.89,399.353 1133.44,406.822 1134,414.727 1134.55,422.976 1135.1,431.475 1135.66,440.128 1136.21,448.838 1136.77,457.508 1137.32,466.039 1137.88,474.337 1138.43,482.307 1138.99,489.858 1139.54,496.901 1140.1,503.354 1140.65,509.138 1141.21,514.178 1141.76,518.409 1142.32,521.77 1142.87,524.206 1143.43,525.674 1143.98,526.134 1144.54,525.558 1145.09,523.924 1145.65,521.22 1146.2,517.443 1146.76,512.598 1147.31,506.699 1147.87,499.77 1148.42,491.842 1148.97,482.953 1149.53,473.154 1150.08,462.497 1150.64,451.046 1151.19,438.871 1151.75,426.045 1152.3,412.651 1152.86,398.773 1153.41,384.501 1153.97,369.928 1154.52,355.151 1155.08,340.268 1155.63,325.376 1156.19,310.577 1156.74,295.969 1157.3,281.649 1157.85,267.714 1158.41,254.257 1158.96,241.367 1159.52,229.131 1160.07,217.627 1160.63,206.933 1161.18,197.115 1161.74,188.237 1162.29,180.353 1162.84,173.512 1163.4,167.751 1163.95,163.103 1164.51,159.59 1165.06,157.225 1165.62,156.014 1166.17,155.953 1166.73,157.029 1167.28,159.221 1167.84,162.498 1168.39,166.822 1168.95,172.148 1169.5,178.421 1170.06,185.579 1170.61,193.556 1171.17,202.277 1171.72,211.663 1172.28,221.629 1172.83,232.087 1173.39,242.945 1173.94,254.108 1174.5,265.479 1175.05,276.96 1175.61,288.453 1176.16,299.86 1176.71,311.083 1177.27,322.028 1177.82,332.603 1178.38,342.718 1178.93,352.29 1179.49,361.239 1180.04,369.489 1180.6,376.974 1181.15,383.632 1181.71,389.408 1182.26,394.256 1182.82,398.137 1183.37,401.019 1183.93,402.883 1184.48,403.713 1185.04,403.506 1185.59,402.266 1186.15,400.005 1186.7,396.747 1187.26,392.521 1187.81,387.365 1188.37,381.326 1188.92,374.459 1189.48,366.825 1190.03,358.491 1190.58,349.532 1191.14,340.027 1191.69,330.061 1192.25,319.722 1192.8,309.102 1193.36,298.296 1193.91,287.401 1194.47,276.514 1195.02,265.734 1195.58,255.159 1196.13,244.885 1196.69,235.006 1197.24,225.616 1197.8,216.802 1198.35,208.648 1198.91,201.234 1199.46,194.633 1200.02,188.913 1200.57,184.135 1201.13,180.353 1201.68,177.613 1202.24,175.953 1202.79,175.402 1203.35,175.983 1203.9,177.708 1204.45,180.58 1205.01,184.594 1205.56,189.737 1206.12,195.985 1206.67,203.307 1207.23,211.665 1207.78,221.01 1208.34,231.287 1208.89,242.434 1209.45,254.382 1210,267.055 1210.56,280.374 1211.11,294.252 1211.67,308.6 1212.22,323.324 1212.78,338.329 1213.33,353.516 1213.89,368.787 1214.44,384.042 1215,399.18 1215.55,414.106 1216.11,428.722 1216.66,442.935 1217.22,456.655 1217.77,469.797 1218.32,482.279 1218.88,494.027 1219.43,504.972 1219.99,515.05 1220.54,524.206 1221.1,532.393 1221.65,539.571 1222.21,545.708 1222.76,550.781 1223.32,554.777 1223.87,557.689 1224.43,559.52 1224.98,560.284 1225.54,560.001 1226.09,558.7 1226.65,556.419 1227.2,553.204 1227.76,549.108 1228.31,544.192 1228.87,538.522 1229.42,532.172 1229.98,525.22 1230.53,517.751 1231.09,509.852 1231.64,501.614 1232.19,493.131 1232.75,484.5 1233.3,475.817 1233.86,467.18 1234.41,458.686 1234.97,450.432 1235.52,442.511 1236.08,435.014 1236.63,428.03 1237.19,421.642 1237.74,415.929 1238.3,410.964 1238.85,406.814 1239.41,403.539 1239.96,401.193 1240.52,399.822 1241.07,399.464 1241.63,400.147 1242.18,401.892 1242.74,404.713 1243.29,408.612 1243.85,413.584 1244.4,419.614 1244.96,426.68 1245.51,434.75 1246.06,443.785 1246.62,453.736 1247.17,464.549 1247.73,476.16 1248.28,488.501 1248.84,501.496 1249.39,515.065 1249.95,529.122 1250.5,543.577 1251.06,558.338 1251.61,573.307 1252.17,588.387 1252.72,603.478 1253.28,618.482 1253.83,633.299 1254.39,647.832 1254.94,661.983 1255.5,675.661 1256.05,688.775 1256.61,701.24 1257.16,712.975 1257.72,723.905 1258.27,733.962 1258.83,743.082 1259.38,751.212 1259.93,758.302 1260.49,764.315 1261.04,769.219 1261.6,772.991 1262.15,775.617 1262.71,777.092 1263.26,777.421 1263.82,776.615 1264.37,774.696 1264.93,771.694 1265.48,767.648 1266.04,762.603 1266.59,756.613 1267.15,749.739 1267.7,742.049 1268.26,733.618 1268.81,724.523 1269.37,714.85 1269.92,704.687 1270.48,694.125 1271.03,683.261 1271.59,672.19 1272.14,661.01 1272.7,649.819 1273.25,638.717 1273.8,627.799 1274.36,617.16 1274.91,606.892 1275.47,597.085 1276.02,587.822 1276.58,579.183 1277.13,571.242 1277.69,564.068 1278.24,557.722 1278.8,552.257 1279.35,547.721 1279.91,544.152 1280.46,541.581 1281.02,540.03 1281.57,539.511 1282.13,540.03 1282.68,541.581 1283.24,544.152 1283.79,547.721 1284.35,552.257 1284.9,557.722 1285.46,564.068 1286.01,571.242 1286.57,579.183 1287.12,587.822 1287.67,597.085 1288.23,606.892 1288.78,617.16 1289.34,627.799 1289.89,638.717 1290.45,649.819 1291,661.01 1291.56,672.19 1292.11,683.261 1292.67,694.125 1293.22,704.687 1293.78,714.85 1294.33,724.523 1294.89,733.618 1295.44,742.049 1296,749.739 1296.55,756.613 1297.11,762.603 1297.66,767.648 1298.22,771.694 1298.77,774.696 1299.33,776.615 1299.88,777.421 1300.44,777.092 1300.99,775.617 1301.54,772.991 1302.1,769.219 1302.65,764.315 1303.21,758.302 1303.76,751.212 1304.32,743.082 1304.87,733.962 1305.43,723.905 1305.98,712.975 1306.54,701.24 1307.09,688.775 1307.65,675.661 1308.2,661.983 1308.76,647.832 1309.31,633.299 1309.87,618.482 1310.42,603.478 1310.98,588.387 1311.53,573.307 1312.09,558.338 1312.64,543.577 1313.2,529.122 1313.75,515.065 1314.31,501.496 1314.86,488.501 1315.41,476.16 1315.97,464.548 1316.52,453.736 1317.08,443.785 1317.63,434.75 1318.19,426.68 1318.74,419.614 1319.3,413.584 1319.85,408.612 1320.41,404.713 1320.96,401.892 1321.52,400.147 1322.07,399.464 1322.63,399.822 1323.18,401.193 1323.74,403.539 1324.29,406.813 1324.85,410.964 1325.4,415.929 1325.96,421.642 1326.51,428.03 1327.07,435.014 1327.62,442.511 1328.18,450.432 1328.73,458.686 1329.28,467.18 1329.84,475.817 1330.39,484.5 1330.95,493.131 1331.5,501.614 1332.06,509.852 1332.61,517.751 1333.17,525.22 1333.72,532.172 1334.28,538.522 1334.83,544.192 1335.39,549.108 1335.94,553.204 1336.5,556.419 1337.05,558.7 1337.61,560.001 1338.16,560.284 1338.72,559.52 1339.27,557.688 1339.83,554.777 1340.38,550.781 1340.94,545.708 1341.49,539.571 1342.05,532.393 1342.6,524.206 1343.15,515.05 1343.71,504.972 1344.26,494.027 1344.82,482.279 1345.37,469.797 1345.93,456.655 1346.48,442.935 1347.04,428.722 1347.59,414.106 1348.15,399.18 1348.7,384.041 1349.26,368.787 1349.81,353.516 1350.37,338.329 1350.92,323.324 1351.48,308.6 1352.03,294.252 1352.59,280.374 1353.14,267.055 1353.7,254.382 1354.25,242.434 1354.81,231.287 1355.36,221.01 1355.92,211.665 1356.47,203.307 1357.02,195.985 1357.58,189.736 1358.13,184.594 1358.69,180.579 1359.24,177.707 1359.8,175.983 1360.35,175.402 1360.91,175.953 1361.46,177.613 1362.02,180.353 1362.57,184.135 1363.13,188.913 1363.68,194.633 1364.24,201.233 1364.79,208.648 1365.35,216.802 1365.9,225.616 1366.46,235.006 1367.01,244.884 1367.57,255.159 1368.12,265.734 1368.68,276.514 " />
</g>
</g>
</svg>
